<!-- Generated by IcoMoon.io -->
<svg version="1.1" xmlns="http://www.w3.org/2000/svg" width="32" height="32" viewBox="0 0 32 32" fill="#ffffff">
<title>free-icon-font-marker-3916884</title>
<path d="M16 0c-7.36 0.008-13.325 5.973-13.333 13.333v0.001c0 7.043 11.2 16.711 12.472 17.791l0.861 0.728 0.861-0.728c1.272-1.080 12.472-10.748 12.472-17.791-0.008-7.36-5.973-13.325-13.333-13.333h-0.001zM16 20c-3.682 0-6.667-2.985-6.667-6.667s2.985-6.667 6.667-6.667c3.682 0 6.667 2.985 6.667 6.667v0c-0.005 3.68-2.987 6.662-6.666 6.667h-0z"></path>
<path d="M20 13.333c0 2.209-1.791 4-4 4s-4-1.791-4-4c0-2.209 1.791-4 4-4s4 1.791 4 4z"></path>
</svg>
