<svg width="710" height="710" xmlns="http://www.w3.org/2000/svg">
 <defs>
  <clipPath id="clip0">
   <rect id="svg_1" height="710" width="710" y="0" x="0"/>
  </clipPath>
 </defs>
 <g>
  <title>background</title>
  <rect fill="none" id="canvas_background" height="710" width="710" y="0" x="0"/>
 </g>
 <g>
  <title>Layer 1</title>
  <g stroke="null" id="svg_97">
   <g stroke="null" id="svg_80" fill="#000000" transform="matrix(0.2634852792485008,0,0,-0.263343572791682,-1471.1176070554516,-113.26007958140508) ">
    <path stroke="null" fill="#007fff" id="svg_81" d="m6736.18263,-856.91547c-165,-37 -161,-41 56,-48c148,-5 218,-11 270,-25c126,-34 243,-107 335,-210c53,-60 77,-77 183,-131c67,-34 140,-74 161,-88l39,-25l-33,58c-125,223 -324,379 -580,456c-89,27 -336,34 -431,13z"/>
    <path stroke="null" fill="#00bfbf" id="svg_82" d="m6633.51598,-1015.91547c-55,-12 -117,-30 -139,-39c-21,-9 -42,-17 -47,-17c-20,0 -109,-68 -166,-127c-62,-63 -113,-154 -126,-220c-8,-39 -1,-41 41,-10c32,24 145,71 195,82c23,5 27,10 27,40c0,28 7,39 37,62c20,15 46,37 57,49c22,22 70,54 151,99c41,23 68,29 155,36c182,14 251,11 339,-14c44,-13 81,-21 81,-18c-1,12 -109,52 -206,76c-126,32 -256,32 -399,1z"/>
    <path stroke="null" fill="#0035bc" id="svg_83" d="m6809.18263,-1072.91547c-74,-7 -92,-13 -165,-56c-112,-65 -204,-130 -211,-149c-3,-9 -6,-29 -6,-45c0,-16 -6,-31 -12,-34c-7,-2 -38,-11 -68,-19c-89,-25 -287,-152 -267,-172c3,-3 25,8 49,25c24,17 57,37 73,45c38,18 188,66 193,62c2,-2 -34,-24 -80,-47c-65,-35 -102,-64 -173,-136c-85,-88 -135,-152 -135,-175c0,-18 80,53 86,78c5,21 66,69 134,104c14,7 41,26 60,41c19,15 57,39 85,53l50,26l8,-25c6,-17 4,-31 -7,-47c-24,-33 -20,-43 29,-93c33,-33 53,-45 75,-45c40,0 75,18 90,45c7,13 21,26 31,28c24,6 25,37 1,44c-10,2 -23,17 -29,33c-7,19 -20,30 -42,35c-17,3 -31,9 -31,12c0,3 11,18 25,35c14,16 39,59 57,95c51,101 109,139 172,113c53,-22 89,-22 150,-1c33,12 81,21 107,21c37,0 51,5 63,21c35,50 123,65 181,29c47,-29 112,-105 120,-139c5,-24 12,-30 46,-35c51,-8 108,-44 115,-73c5,-20 13,-23 54,-23c31,0 52,-5 60,-16c8,-8 22,-20 32,-25c32,-17 21,17 -17,55c-47,47 -44,53 11,21c25,-15 47,-25 49,-23c2,2 -1,15 -8,28c-9,18 -70,55 -228,135c-119,61 -238,122 -265,136c-108,58 -262,78 -462,58z"/>
    <path stroke="null" fill="#d60202" id="svg_84" d="m7212.18263,-1166.91547c-5,-2 -21,-6 -36,-9c-17,-4 -43,-30 -81,-83c-31,-43 -88,-114 -127,-158c-39,-44 -111,-142 -159,-217c-48,-76 -92,-138 -98,-138c-6,0 -51,14 -100,31c-49,17 -119,42 -156,55c-37,12 -78,30 -93,40c-39,25 -39,12 1,-34c25,-29 62,-54 130,-87c52,-24 106,-48 119,-51c37,-9 39,-21 8,-38c-51,-26 -111,-100 -156,-191c-25,-49 -48,-101 -52,-115c-10,-35 -24,-49 -62,-65c-32,-14 -33,-16 -33,-72c-1,-32 -7,-75 -14,-95c-29,-82 44,-25 88,68c37,79 147,203 324,368l63,58l62,-22c77,-28 196,-86 219,-107c27,-24 22,-53 -11,-64c-31,-11 -46,-37 -56,-96c-4,-21 -11,-53 -17,-70c-12,-40 3,-65 63,-105c52,-35 64,-35 117,-1c61,40 73,71 65,176l-6,86l33,33c85,85 170,408 170,646c0,92 -3,106 -25,142c-47,74 -135,130 -180,115zm-26,-450c-18,-144 -79,-285 -123,-285c-18,0 -188,60 -199,70c-5,4 22,30 60,58c37,29 111,94 163,146c52,53 98,92 101,88c4,-4 3,-38 -2,-77z"/>
    <path stroke="null" fill="#00bfbf" id="svg_85" d="m7151.18263,-1581.91547c-19,-19 -20,-25 -9,-56c6,-18 14,-36 17,-40c8,-7 21,77 16,100c-3,15 -6,14 -24,-4z"/>
    <path stroke="null" fill="#007fff" id="svg_86" d="m6642.18263,-1347.91547c-9,-14 -14,-28 -11,-32c8,-7 58,30 64,46c7,23 -36,12 -53,-14z"/>
    <path stroke="null" fill="#00bfbf" id="svg_87" d="m6797.18263,-1383.91547c-60,-21 -131,-83 -151,-130c-13,-32 -13,-33 16,-41c14,-5 32,4 59,28c21,19 46,35 57,35c10,0 21,5 24,10c3,6 25,10 48,10c38,0 48,6 90,48c26,26 47,51 47,55c0,15 -137,5 -190,-15z"/>
    <path stroke="null" fill="#00bfbf" id="svg_88" d="m7532.18263,-1403.91547c49,-159 58,-311 26,-433c-19,-75 -78,-222 -91,-230c-4,-3 -22,-30 -40,-61c-34,-60 -179,-218 -220,-239c-14,-7 -38,-25 -54,-39c-17,-13 -46,-33 -65,-43c-20,-10 -49,-27 -66,-39c-43,-30 -149,-74 -177,-74c-13,0 -28,-4 -34,-9c-14,-13 -97,-31 -179,-38c-42,-3 -78,-9 -80,-13c-5,-9 99,-50 125,-50c11,0 45,-7 77,-15c83,-22 283,-20 348,3c77,27 221,122 308,203c91,84 140,153 203,282c41,84 47,108 66,245c21,150 21,153 3,249c-27,147 -57,236 -83,248c-12,5 -26,22 -33,37c-14,35 -45,49 -34,16z"/>
    <path stroke="null" fill="#007fff" id="svg_89" d="m7787.18263,-1435.91547c0,-13 -5,-17 -18,-14c-15,4 -17,0 -14,-29c5,-40 -2,-41 -52,-3c-45,34 -82,41 -71,13c19,-51 57,-195 66,-257c21,-134 -16,-357 -81,-487c-95,-187 -204,-305 -382,-411c-39,-23 -66,-44 -61,-45c6,-2 45,10 88,26c298,115 517,375 580,690c24,115 16,324 -15,430c-24,85 -39,118 -40,87z"/>
    <path stroke="null" fill="#00bfbf" id="svg_90" d="m7424.18263,-1538.91547c-6,-92 3,-157 26,-179c4,-4 7,40 7,97c0,189 -23,245 -33,82z"/>
    <path stroke="null" fill="#00bfbf" id="svg_91" d="m6237.18263,-1472.91547c-47,-19 -100,-61 -100,-81c0,-16 8,-13 46,21c26,23 52,41 59,41c7,0 18,7 25,15c14,17 6,18 -30,4z"/>
    <path stroke="null" fill="#007fff" id="svg_92" d="m6389.18263,-1513.91547c-5,-7 -20,-33 -32,-57c-24,-47 -24,-46 32,-76c48,-26 81,-14 38,13c-32,20 -44,60 -25,88c24,37 13,64 -13,32z"/>
    <path stroke="null" fill="#00bfbf" id="svg_93" d="m6222.18263,-1612.91547c-22,-10 -51,-26 -64,-37c-23,-18 -23,-21 -13,-94c12,-92 75,-229 139,-300c45,-51 57,-48 24,6c-11,17 -24,49 -30,71c-5,22 -15,58 -20,80c-13,51 -14,143 -1,224c6,35 10,65 8,66c-2,1 -21,-6 -43,-16z"/>
    <path stroke="null" fill="#00bfbf" id="svg_94" d="m6618.18263,-1650.91547c-12,-16 -21,-40 -21,-53c0,-19 6,-15 30,24c17,27 30,50 30,53c0,14 -21,1 -39,-24z"/>
    <path stroke="null" fill="#007fff" id="svg_95" d="m6318.18263,-1726.91547c-1,-96 24,-194 68,-266c17,-27 31,-54 31,-60c0,-22 23,-1 46,41c25,48 38,68 68,107c16,22 17,29 7,64c-11,36 -19,43 -74,68c-63,29 -99,57 -129,101c-17,25 -17,23 -17,-55z"/>
    <path stroke="null" fill="#007fff" id="svg_96" d="m6609.18263,-2084.91547l-63,-63l53,-24c41,-19 74,-26 147,-28c53,-2 103,1 115,6c11,6 44,20 72,32c32,13 56,31 63,46c6,13 22,29 36,34c14,5 25,16 25,25c0,19 2,20 -72,-15c-53,-25 -71,-29 -113,-24c-27,4 -60,13 -72,20c-12,8 -28,14 -34,14c-7,0 -20,6 -28,14c-9,7 -28,16 -42,19c-21,5 -35,-3 -87,-56z"/>
   </g>
  </g>
  <g id="svg_2" clip-path="url(#clip0)" stroke="null">
   <rect id="svg_3" fill-opacity="0" fill="#FFFFFF" height="710" width="710" y="0" x="0" stroke="null"/>
   <path id="svg_4" fill-rule="evenodd" fill="none" stroke-miterlimit="0" stroke-width="96" d="m61.77673,353.44439c0,-161.267 130.733,-292 292,-292c161.267,0 292,130.733 292,292c0,161.267 -130.733,292 -292,292c-161.267,0 -292,-130.733 -292,-292z" stroke="#2033A4"/>
   <path id="svg_5" fill-opacity="0" fill-rule="evenodd" fill="#FFFFFF" d="m50.53173,100.40839c143.989,-171.5992 399.825,-193.9819 571.424,-49.9927c171.6,143.9897 193.983,399.8247 49.993,571.4237c-143.989,171.6 -399.824,193.983 -571.424,49.994c-171.5993,-143.99 -193.98198,-399.825 -49.993,-571.425z" stroke="null"/>
   <path id="svg_6" fill-rule="evenodd" fill="#FFFFFF" d="m150.99173,128.17339c0.738,-0.721 1.372,-1.271 1.903,-1.65c0.531,-0.378 0.975,-0.611 1.33,-0.698c0.356,-0.087 0.634,-0.038 0.834,0.146c0.201,0.185 0.37,0.47 0.507,0.857l4.821,16.616l17.32,5.244c0.363,0.126 0.619,0.286 0.769,0.48c0.15,0.194 0.177,0.458 0.082,0.791c-0.095,0.333 -0.343,0.756 -0.744,1.268c-0.401,0.512 -0.97,1.128 -1.708,1.849c-0.594,0.58 -1.09,1.046 -1.49,1.395c-0.399,0.35 -0.756,0.609 -1.072,0.778c-0.316,0.169 -0.591,0.267 -0.824,0.294c-0.233,0.028 -0.491,0 -0.774,-0.085l-17.213,-3.967c-0.686,-0.17 -1.24,-0.48 -1.66,-0.931c-0.42,-0.45 -0.727,-1.102 -0.919,-1.955l-3.519,-16.266c-0.058,-0.264 -0.08,-0.533 -0.067,-0.806c0.014,-0.274 0.103,-0.561 0.269,-0.863c0.165,-0.302 0.417,-0.649 0.756,-1.04c0.339,-0.391 0.805,-0.877 1.399,-1.457zm-13.046,11.425c0.738,-0.72 1.372,-1.27 1.903,-1.649c0.531,-0.378 0.98,-0.596 1.345,-0.653c0.365,-0.056 0.658,0.008 0.879,0.193c0.22,0.185 0.389,0.48 0.506,0.887l5.268,17.381l17.648,5.765c0.404,0.126 0.706,0.301 0.906,0.527c0.2,0.225 0.262,0.514 0.187,0.868c-0.075,0.353 -0.298,0.791 -0.668,1.314c-0.371,0.522 -0.935,1.154 -1.694,1.894c-0.594,0.581 -1.1,1.036 -1.519,1.365c-0.42,0.33 -0.787,0.579 -1.103,0.747c-0.316,0.169 -0.611,0.257 -0.884,0.263c-0.274,0.007 -0.552,-0.031 -0.834,-0.116l-17.846,-4.491c-0.706,-0.19 -1.275,-0.516 -1.705,-0.976c-0.43,-0.461 -0.732,-1.108 -0.904,-1.94l-3.874,-17.061c-0.058,-0.305 -0.085,-0.589 -0.082,-0.852c0.003,-0.263 0.093,-0.551 0.269,-0.863c0.175,-0.312 0.433,-0.673 0.772,-1.085c0.339,-0.411 0.816,-0.917 1.43,-1.518z" stroke="null"/>
   <text id="svg_7" y="163.161389" x="135.474729" font-size="42.7183" font-family="Arial,Arial_MSFontService,sans-serif" fill-opacity="0" fill="#000000" stroke="null">«</text>
   <path id="svg_8" fill-rule="evenodd" fill="#FFFFFF" d="m186.06273,95.07439l3.036,26.523l12.929,-8.802l-15.929,-17.745l-0.036,0.024zm-4.52,-10.0742c1.397,-0.9512 2.516,-1.6872 3.357,-2.2079c0.841,-0.5206 1.531,-0.869 2.07,-1.0451c0.538,-0.1761 0.967,-0.1823 1.287,-0.0186c0.319,0.1638 0.656,0.4544 1.009,0.8721l33.741,36.6517c0.699,0.772 1.211,1.41 1.538,1.916c0.327,0.505 0.415,0.991 0.265,1.457c-0.151,0.466 -0.573,0.979 -1.267,1.538c-0.693,0.559 -1.68,1.274 -2.958,2.144c-0.9,0.613 -1.646,1.095 -2.239,1.446c-0.592,0.352 -1.074,0.585 -1.447,0.7c-0.372,0.115 -0.682,0.118 -0.929,0.009c-0.248,-0.109 -0.496,-0.321 -0.745,-0.636l-7.531,-8.389l-17.262,11.753l1.384,12.262c0.059,0.445 0.06,0.852 0,1.222c-0.06,0.37 -0.251,0.751 -0.573,1.144c-0.322,0.392 -0.804,0.842 -1.447,1.349c-0.643,0.506 -1.473,1.106 -2.491,1.8c-1.089,0.741 -1.96,1.282 -2.612,1.622c-0.652,0.34 -1.172,0.443 -1.558,0.307c-0.387,-0.135 -0.673,-0.503 -0.857,-1.105c-0.185,-0.603 -0.335,-1.471 -0.449,-2.606l-5.457,-55.9612c-0.037,-0.5638 -0.022,-1.0506 0.045,-1.4604c0.068,-0.4099 0.276,-0.829 0.626,-1.2575c0.349,-0.4285 0.885,-0.9144 1.606,-1.4578c0.722,-0.5433 1.687,-1.2261 2.894,-2.0483z" stroke="null"/>
   <text id="svg_9" y="142.286389" x="176.351729" font-size="69.3443" font-family="Arial,Arial_MSFontService,sans-serif" fill-opacity="0" fill="#000000" stroke="null">А</text>
   <path id="svg_10" fill-rule="evenodd" fill="#FFFFFF" d="m234.08573,91.58309l3.568,15.7203l7.301,-3.251c1.858,-0.828 3.305,-1.786 4.341,-2.874c1.036,-1.089 1.779,-2.236 2.231,-3.44c0.451,-1.205 0.631,-2.437 0.54,-3.698c-0.091,-1.2607 -0.387,-2.4537 -0.888,-3.5789c-0.746,-1.6748 -1.956,-2.7194 -3.631,-3.134c-1.674,-0.4146 -3.872,-0.0159 -6.593,1.1962l-6.869,3.0594zm-5.031,-22.5954l3.205,14.3773l5.809,-2.5874c1.701,-0.7576 2.995,-1.6551 3.881,-2.6927c0.886,-1.0376 1.5,-2.1419 1.841,-3.3129c0.341,-1.1709 0.447,-2.3395 0.32,-3.5057c-0.128,-1.1662 -0.401,-2.2204 -0.821,-3.1624c-0.326,-0.7327 -0.742,-1.3156 -1.249,-1.7485c-0.506,-0.433 -1.108,-0.7292 -1.807,-0.8886c-0.698,-0.1595 -1.493,-0.1661 -2.384,-0.02c-0.891,0.1462 -1.952,0.4931 -3.182,1.0409l-5.613,2.5zm-8.782,-5.355l12.207,-5.437c2.696,-1.2004 5.118,-2.0284 7.267,-2.4838c2.149,-0.4554 4.08,-0.5551 5.793,-0.2991c1.714,0.2561 3.199,0.8803 4.456,1.8725c1.258,0.9923 2.282,2.3782 3.075,4.1576c0.688,1.5439 1.121,3.0989 1.302,4.665c0.18,1.5661 0.111,3.1019 -0.206,4.6073c-0.318,1.5054 -0.863,2.9557 -1.637,4.351c-0.774,1.3953 -1.764,2.6751 -2.97,3.8394c1.244,-0.3034 2.467,-0.4091 3.668,-0.317c1.202,0.0921 2.33,0.3894 3.385,0.8917c1.054,0.5024 2.019,1.2251 2.894,2.1682c0.875,0.9432 1.621,2.1082 2.238,3.4951c0.56,1.256 0.97,2.6336 1.23,4.1328c0.26,1.4991 0.309,3.053 0.147,4.662c-0.161,1.608 -0.572,3.257 -1.23,4.946c-0.659,1.689 -1.624,3.342 -2.896,4.958c-1.271,1.617 -2.879,3.164 -4.823,4.642c-1.945,1.477 -4.357,2.857 -7.235,4.139l-14.091,6.276c-1.073,0.478 -1.968,0.563 -2.686,0.255c-0.717,-0.307 -1.208,-1.076 -1.474,-2.306l-10.849,-48.2271c-0.303,-1.2446 -0.209,-2.2823 0.283,-3.1131c0.493,-0.8308 1.21,-1.456 2.152,-1.8755z" stroke="null"/>
   <text id="svg_11" y="111.328389" x="217.664729" font-size="64.061" font-family="Arial,Arial_MSFontService,sans-serif" fill-opacity="0" fill="#000000" stroke="null">В</text>
   <path id="svg_12" fill-rule="evenodd" fill="#FFFFFF" d="m289.47473,50.83149l-6.404,25.9173l15.187,-3.7417l-8.741,-22.1859l-0.042,0.0103zm-0.723,-11.018c1.641,-0.4044 2.946,-0.7039 3.916,-0.8986c0.97,-0.1947 1.738,-0.2807 2.304,-0.2579c0.566,0.0228 0.971,0.1666 1.213,0.4314c0.242,0.2649 0.456,0.6546 0.642,1.1694l18.841,46.1168c0.386,0.9671 0.644,1.7443 0.774,2.3319c0.13,0.5875 0.043,1.0735 -0.26,1.4581c-0.304,0.3846 -0.878,0.7178 -1.723,0.9998c-0.845,0.282 -2.019,0.608 -3.521,0.9781c-1.057,0.2604 -1.924,0.452 -2.602,0.5747c-0.678,0.1228 -1.211,0.173 -1.6,0.1509c-0.389,-0.0222 -0.68,-0.1274 -0.874,-0.3156c-0.194,-0.1883 -0.353,-0.4737 -0.477,-0.8562l-4.133,-10.4877l-20.276,4.9958l-2.98,11.975c-0.099,0.437 -0.241,0.819 -0.426,1.145c-0.185,0.325 -0.497,0.616 -0.935,0.872c-0.439,0.255 -1.048,0.509 -1.827,0.76c-0.779,0.25 -1.766,0.523 -2.962,0.818c-1.28,0.315 -2.284,0.518 -3.014,0.61c-0.73,0.091 -1.253,0.006 -1.568,-0.256c-0.315,-0.261 -0.454,-0.706 -0.417,-1.335c0.037,-0.629 0.199,-1.495 0.488,-2.599l14.4,-54.3509c0.162,-0.5413 0.345,-0.9923 0.552,-1.3529c0.206,-0.3606 0.547,-0.6807 1.024,-0.9605c0.477,-0.2797 1.148,-0.5484 2.014,-0.806c0.866,-0.2576 2.008,-0.5611 3.427,-0.9106z" stroke="null"/>
   <text id="svg_13" y="94.448389" x="266.840729" font-size="63.7662" font-family="Arial,Arial_MSFontService,sans-serif" fill-opacity="0" fill="#000000" stroke="null">А</text>
   <path id="svg_14" fill-rule="evenodd" fill="#FFFFFF" d="m335.01673,32.74759c1.087,-0.0576 1.99,-0.0695 2.709,-0.0358c0.719,0.0336 1.283,0.1114 1.691,0.2332c0.408,0.1218 0.682,0.2938 0.823,0.5158c0.141,0.222 0.19,0.4776 0.148,0.7667l-2.995,20.6403l20.811,-1.1016l2.952,-20.6381c0.042,-0.2891 0.171,-0.5541 0.388,-0.795c0.217,-0.241 0.55,-0.4451 1,-0.6124c0.45,-0.1672 1.046,-0.3063 1.785,-0.4172c0.74,-0.1109 1.654,-0.1951 2.741,-0.2526c1.087,-0.0576 1.99,-0.0695 2.709,-0.0358c0.719,0.0336 1.282,0.1114 1.69,0.2332c0.408,0.1218 0.683,0.2938 0.824,0.5158c0.141,0.222 0.19,0.4776 0.148,0.7667l-7.733,53.0767c-0.042,0.289 -0.171,0.5541 -0.388,0.795c-0.217,0.241 -0.55,0.4451 -1,0.6124c-0.45,0.1672 -1.045,0.3063 -1.785,0.4172c-0.74,0.1109 -1.654,0.1951 -2.741,0.2526c-1.087,0.0576 -1.99,0.0695 -2.709,0.0358c-0.719,-0.0336 -1.275,-0.1117 -1.669,-0.2343c-0.393,-0.1226 -0.668,-0.2945 -0.823,-0.5158c-0.155,-0.2213 -0.197,-0.4772 -0.127,-0.7678l3.273,-22.7204l-20.768,1.0993l-3.272,22.7204c-0.043,0.2891 -0.172,0.5541 -0.389,0.7951c-0.216,0.2409 -0.557,0.4454 -1.021,0.6135c-0.465,0.168 -1.06,0.307 -1.786,0.4171c-0.725,0.1102 -1.632,0.194 -2.719,0.2516c-1.115,0.059 -2.025,0.0713 -2.73,0.0369c-0.705,-0.0344 -1.261,-0.1125 -1.669,-0.2343c-0.408,-0.1219 -0.69,-0.2934 -0.845,-0.5147c-0.155,-0.2213 -0.197,-0.4772 -0.126,-0.7678l7.732,-53.0767c0.013,-0.2876 0.129,-0.5519 0.345,-0.7928c0.217,-0.241 0.55,-0.4451 1.001,-0.6124c0.45,-0.1672 1.045,-0.3063 1.785,-0.4172c0.74,-0.1108 1.653,-0.1951 2.74,-0.2526z" stroke="null"/>
   <text id="svg_15" y="82.130289" x="321.379729" font-size="58.4387" font-family="Arial,Arial_MSFontService,sans-serif" fill-opacity="0" fill="#000000" stroke="null">Н</text>
   <path id="svg_16" fill-rule="evenodd" fill="#FFFFFF" d="m394.50573,33.73609l26.298,2.5897c0.428,0.0421 0.696,0.2484 0.803,0.6188c0.107,0.3703 0.134,0.8264 0.081,1.368c-0.022,0.2281 -0.077,0.5609 -0.163,0.9986c-0.086,0.4377 -0.205,0.9153 -0.357,1.4329c-0.152,0.5175 -0.335,1.0608 -0.549,1.6298c-0.214,0.5689 -0.452,1.0852 -0.714,1.5488c-0.261,0.4636 -0.549,0.831 -0.864,1.1023c-0.315,0.2712 -0.657,0.3886 -1.028,0.3521l-18.345,-1.8065l-13.29,43.7676c-0.085,0.2794 -0.253,0.5148 -0.502,0.7062c-0.249,0.1913 -0.616,0.3351 -1.1,0.4313c-0.484,0.0963 -1.101,0.1435 -1.849,0.1418c-0.748,-0.0017 -1.664,-0.0559 -2.747,-0.1626c-1.112,-0.1095 -2.014,-0.2343 -2.705,-0.3743c-0.691,-0.1401 -1.23,-0.301 -1.615,-0.4828c-0.385,-0.1819 -0.638,-0.3867 -0.76,-0.6146c-0.121,-0.2278 -0.125,-0.4801 -0.011,-0.7567l15.005,-49.3412c0.346,-1.1749 0.918,-2.0181 1.717,-2.5295c0.799,-0.5114 1.697,-0.718 2.695,-0.6197z" stroke="null"/>
   <text id="svg_17" y="81.754389" x="375.005729" font-size="54.9052" font-family="Arial,Arial_MSFontService,sans-serif" fill-opacity="0" fill="#000000" stroke="null">Г</text>
   <path id="svg_18" fill-rule="evenodd" fill="#FFFFFF" d="m443.73273,53.45509l-17.805,19.8921l15.169,3.8133l2.678,-23.6949l-0.042,-0.0105zm4.526,-10.0716c1.639,0.412 2.932,0.7594 3.88,1.042c0.948,0.2826 1.667,0.5667 2.156,0.8522c0.49,0.2855 0.779,0.602 0.869,0.9495c0.09,0.3475 0.097,0.7921 0.019,1.3339l-4.973,49.5683c-0.113,1.035 -0.249,1.843 -0.41,2.423c-0.16,0.58 -0.465,0.968 -0.913,1.166c-0.448,0.197 -1.112,0.222 -1.991,0.075c-0.878,-0.147 -2.068,-0.409 -3.568,-0.786c-1.056,-0.266 -1.912,-0.503 -2.568,-0.712c-0.656,-0.209 -1.151,-0.415 -1.484,-0.617c-0.333,-0.202 -0.541,-0.431 -0.625,-0.689c-0.083,-0.257 -0.089,-0.583 -0.019,-0.979l1.265,-11.2017l-20.253,-5.0913l-8.245,9.1809c-0.292,0.3401 -0.596,0.6107 -0.912,0.8117c-0.317,0.2011 -0.729,0.3117 -1.236,0.3319c-0.507,0.0202 -1.163,-0.0415 -1.969,-0.185c-0.806,-0.1434 -1.806,-0.3653 -3.001,-0.6656c-1.278,-0.3213 -2.26,-0.6127 -2.948,-0.8741c-0.687,-0.2614 -1.109,-0.5816 -1.265,-0.9604c-0.156,-0.3789 -0.07,-0.8373 0.257,-1.3753c0.328,-0.538 0.877,-1.2269 1.65,-2.0665l38.196,-41.2607c0.397,-0.4025 0.771,-0.7146 1.122,-0.9365c0.351,-0.2218 0.803,-0.3446 1.355,-0.3682c0.552,-0.0236 1.271,0.0538 2.157,0.2321c0.885,0.1783 2.037,0.4456 3.454,0.8018z" stroke="null"/>
   <text id="svg_19" y="93.570389" x="399.992729" font-size="58.5422" font-family="Arial,Arial_MSFontService,sans-serif" fill-opacity="0" fill="#000000" stroke="null">А</text>
   <path id="svg_20" fill-rule="evenodd" fill="#FFFFFF" d="m491.44773,68.37229l-10.952,15.7964l4.723,2.0685c1.495,0.655 2.852,1.0381 4.07,1.1493c1.218,0.1112 2.353,0.0534 3.406,-0.1734c1.054,-0.2268 2.035,-0.6102 2.944,-1.1503c0.908,-0.5402 1.73,-1.1656 2.463,-1.8764c0.734,-0.7108 1.371,-1.4712 1.914,-2.2812c0.542,-0.8101 0.992,-1.6219 1.348,-2.4353c0.551,-1.2595 0.727,-2.4806 0.525,-3.6633c-0.201,-1.1827 -0.851,-2.2336 -1.95,-3.1525c-0.47,-0.425 -1.032,-0.8197 -1.686,-1.1841c-0.653,-0.3644 -1.4,-0.7304 -2.239,-1.0982l-4.566,-1.9995zm-1.5,-10.1792l11.139,4.8782c1.365,0.5976 2.565,1.1779 3.6,1.7409c1.036,0.563 2.033,1.1793 2.99,1.8489c1.463,1.0158 2.687,2.1304 3.672,3.3438c0.986,1.2133 1.709,2.5073 2.17,3.8821c0.461,1.3747 0.638,2.828 0.53,4.36c-0.108,1.5319 -0.53,3.1376 -1.265,4.8169c-0.644,1.4694 -1.48,2.9326 -2.509,4.3896c-1.029,1.457 -2.247,2.7921 -3.654,4.0054c-1.407,1.2132 -2.996,2.2525 -4.767,3.1195c-1.771,0.866 -3.736,1.46 -5.893,1.781c-2.158,0.322 -4.487,0.302 -6.988,-0.058c-2.5,-0.36 -5.259,-1.201 -8.277,-2.522l-5.313,-2.3274l-10.404,14.8644c-0.167,0.239 -0.402,0.418 -0.703,0.536c-0.302,0.118 -0.705,0.145 -1.209,0.081c-0.503,-0.065 -1.11,-0.213 -1.821,-0.446c-0.711,-0.234 -1.565,-0.569 -2.562,-1.005c-0.971,-0.425 -1.764,-0.812 -2.378,-1.159c-0.614,-0.347 -1.076,-0.667 -1.386,-0.959c-0.31,-0.292 -0.487,-0.565 -0.532,-0.819c-0.045,-0.254 0.035,-0.509 0.24,-0.763l29.252,-41.8374c0.777,-1.1298 1.693,-1.8307 2.751,-2.1025c1.057,-0.2719 2.163,-0.155 3.317,0.3506z" stroke="null"/>
   <text id="svg_21" y="100.808389" x="454.375729" font-size="49.267" font-family="Arial,Arial_MSFontService,sans-serif" fill-opacity="0" fill="#000000" stroke="null">Р</text>
   <path id="svg_22" fill-rule="evenodd" fill="#FFFFFF" d="m540.22773,95.90539c-3.546,2.834 -6.709,5.303 -9.491,7.407c-2.782,2.103 -5.276,3.917 -7.482,5.441c-2.206,1.524 -4.169,2.788 -5.89,3.792c-1.721,1.004 -3.284,1.837 -4.691,2.499c-1.407,0.663 -2.698,1.178 -3.874,1.547c-1.176,0.369 -2.32,0.664 -3.433,0.886l18.726,12.501l26.927,-26.867l-10.792,-7.206zm0.412,-10.6774l23.622,15.7704c0.857,0.573 1.308,1.226 1.351,1.961c0.043,0.735 -0.364,1.539 -1.223,2.413l-30.898,30.881l3.931,2.625c0.619,0.413 0.921,0.864 0.905,1.353c-0.017,0.488 -0.315,0.987 -0.895,1.495l-14.358,14.387c-0.183,0.222 -0.408,0.365 -0.674,0.428c-0.266,0.064 -0.608,0.034 -1.025,-0.09c-0.417,-0.123 -0.919,-0.338 -1.507,-0.644c-0.587,-0.307 -1.286,-0.73 -2.096,-1.271c-0.81,-0.541 -1.446,-1.008 -1.906,-1.402c-0.461,-0.393 -0.804,-0.743 -1.03,-1.049c-0.227,-0.306 -0.332,-0.574 -0.316,-0.805c0.016,-0.23 0.128,-0.448 0.334,-0.655l9.457,-9.444l-30.769,-20.542l-9.492,9.42c-0.183,0.223 -0.414,0.362 -0.692,0.417c-0.278,0.055 -0.626,0.021 -1.043,-0.102c-0.417,-0.123 -0.919,-0.338 -1.507,-0.644c-0.587,-0.307 -1.274,-0.722 -2.061,-1.247c-0.81,-0.541 -1.451,-1.012 -1.923,-1.414c-0.473,-0.401 -0.81,-0.747 -1.013,-1.037c-0.202,-0.29 -0.295,-0.551 -0.279,-0.781c0.016,-0.23 0.127,-0.449 0.334,-0.655l14.382,-14.423c0.58,-0.611 1.143,-0.95 1.687,-1.018c0.544,-0.067 1.114,0.099 1.71,0.496l2.108,1.408c1.256,-0.333 2.521,-0.694 3.796,-1.082c1.276,-0.389 2.671,-0.93 4.184,-1.624c1.514,-0.694 3.209,-1.595 5.085,-2.702c1.876,-1.107 4.066,-2.53 6.569,-4.268c2.504,-1.738 5.382,-3.856 8.633,-6.352c3.251,-2.4969 7.011,-5.4718 11.279,-8.925c1.073,-0.8335 2.029,-1.3235 2.868,-1.4699c0.838,-0.1465 1.662,0.0507 2.472,0.5915z" stroke="null"/>
   <text id="svg_23" y="147.575389" x="475.530729" font-size="71.9842" font-family="Arial,Arial_MSFontService,sans-serif" fill-opacity="0" fill="#000000" stroke="null">Д</text>
   <path id="svg_24" fill-rule="evenodd" fill="#FFFFFF" d="m571.22873,128.06739c0.595,0.58 1.072,1.066 1.431,1.456c0.36,0.391 0.622,0.737 0.788,1.038c0.166,0.302 0.261,0.575 0.284,0.817c0.023,0.243 0.017,0.507 -0.02,0.791l-3.611,17.304c-0.133,0.67 -0.42,1.221 -0.86,1.652c-0.441,0.431 -1.085,0.753 -1.933,0.966l-16.146,3.941c-0.303,0.065 -0.581,0.093 -0.835,0.087c-0.253,-0.007 -0.538,-0.095 -0.854,-0.263c-0.316,-0.168 -0.673,-0.417 -1.073,-0.746c-0.399,-0.33 -0.896,-0.784 -1.49,-1.364c-0.759,-0.74 -1.334,-1.361 -1.726,-1.862c-0.391,-0.502 -0.634,-0.929 -0.73,-1.283c-0.095,-0.353 -0.048,-0.637 0.141,-0.852c0.19,-0.215 0.487,-0.386 0.89,-0.513l16.495,-5.221l4.824,-17.442c0.097,-0.386 0.24,-0.656 0.431,-0.81c0.19,-0.155 0.453,-0.188 0.789,-0.101c0.335,0.087 0.763,0.324 1.285,0.713c0.521,0.388 1.161,0.952 1.92,1.692zm13.333,11.561c0.595,0.58 1.062,1.076 1.402,1.487c0.339,0.411 0.592,0.767 0.757,1.069c0.166,0.302 0.256,0.589 0.27,0.863c0.013,0.273 -0.019,0.552 -0.096,0.836l-4.089,17.98c-0.153,0.69 -0.455,1.256 -0.905,1.697c-0.45,0.442 -1.099,0.769 -1.948,0.982l-16.932,4.255c-0.303,0.064 -0.586,0.098 -0.849,0.102c-0.264,0.003 -0.553,-0.08 -0.869,-0.248c-0.316,-0.168 -0.684,-0.417 -1.104,-0.746c-0.419,-0.328 -0.926,-0.783 -1.521,-1.363c-0.759,-0.74 -1.329,-1.366 -1.71,-1.877c-0.381,-0.512 -0.61,-0.955 -0.685,-1.329c-0.076,-0.374 -0.019,-0.668 0.171,-0.883c0.19,-0.215 0.476,-0.396 0.859,-0.543l17.249,-5.686l5.336,-17.783c0.117,-0.406 0.285,-0.712 0.505,-0.918c0.22,-0.205 0.508,-0.274 0.864,-0.208c0.355,0.066 0.798,0.279 1.329,0.637c0.532,0.358 1.187,0.916 1.966,1.676z" stroke="null"/>
   <text id="svg_25" y="163.488389" x="544.405729" font-size="43.284" font-family="Arial,Arial_MSFontService,sans-serif" fill-opacity="0" fill="#000000" stroke="null">»</text>
   <path id="svg_26" fill-rule="evenodd" fill="#FFFFFF" d="m654.46073,209.56039c0.735,1.361 1.329,2.734 1.782,4.117c0.453,1.383 0.786,2.708 0.998,3.977c0.213,1.269 0.311,2.461 0.294,3.576c-0.016,1.116 -0.103,1.936 -0.26,2.46c-0.156,0.524 -0.314,0.91 -0.473,1.158c-0.159,0.249 -0.395,0.506 -0.707,0.772c-0.312,0.266 -0.697,0.547 -1.156,0.844c-0.458,0.296 -1.041,0.634 -1.747,1.015c-0.756,0.408 -1.412,0.73 -1.969,0.965c-0.557,0.235 -1.033,0.378 -1.429,0.429c-0.395,0.051 -0.716,0.029 -0.963,-0.066c-0.246,-0.095 -0.431,-0.256 -0.553,-0.483c-0.204,-0.378 -0.242,-0.976 -0.114,-1.794c0.129,-0.818 0.216,-1.833 0.261,-3.045c0.046,-1.213 -0.054,-2.575 -0.3,-4.086c-0.246,-1.511 -0.845,-3.149 -1.797,-4.914c-1.047,-1.941 -2.379,-3.46 -3.996,-4.557c-1.617,-1.097 -3.452,-1.783 -5.505,-2.059c-2.053,-0.276 -4.275,-0.126 -6.667,0.448c-2.392,0.574 -4.899,1.569 -7.521,2.983c-2.874,1.551 -5.203,3.19 -6.989,4.918c-1.785,1.729 -3.063,3.508 -3.832,5.339c-0.77,1.832 -1.071,3.703 -0.902,5.614c0.168,1.91 0.776,3.837 1.823,5.778c0.952,1.764 1.983,3.177 3.093,4.239c1.11,1.061 2.165,1.916 3.165,2.564c1.001,0.648 1.863,1.16 2.586,1.534c0.723,0.375 1.173,0.727 1.35,1.054c0.136,0.252 0.194,0.481 0.175,0.687c-0.019,0.206 -0.153,0.441 -0.401,0.705c-0.248,0.264 -0.63,0.567 -1.145,0.91c-0.514,0.343 -1.226,0.759 -2.133,1.249c-0.631,0.34 -1.176,0.61 -1.638,0.81c-0.462,0.2 -0.87,0.348 -1.226,0.442c-0.356,0.094 -0.682,0.14 -0.977,0.136c-0.295,-0.003 -0.662,-0.066 -1.101,-0.187c-0.44,-0.121 -1.101,-0.456 -1.983,-1.005c-0.882,-0.549 -1.841,-1.285 -2.876,-2.208c-1.034,-0.923 -2.088,-2.046 -3.161,-3.372c-1.073,-1.325 -2.072,-2.845 -2.997,-4.559c-1.809,-3.353 -2.925,-6.657 -3.346,-9.912c-0.422,-3.256 -0.116,-6.383 0.919,-9.382c1.034,-2.999 2.817,-5.833 5.349,-8.501c2.532,-2.668 5.84,-5.103 9.924,-7.307c4.159,-2.244 8.152,-3.682 11.978,-4.314c3.825,-0.632 7.372,-0.543 10.639,0.265c3.268,0.808 6.221,2.299 8.858,4.473c2.638,2.174 4.861,4.937 6.67,8.29z" stroke="null"/>
   <text id="svg_27" y="240.884389" x="599.939729" font-size="51.1629" font-family="Arial,Arial_MSFontService,sans-serif" fill-opacity="0" fill="#000000" stroke="null">С</text>
   <path id="svg_28" fill-rule="evenodd" fill="#FFFFFF" d="m653.88873,244.28239l9.806,28.526c0.326,0.948 0.291,1.748 -0.106,2.399c-0.398,0.652 -1.138,1.164 -2.221,1.536l-34.337,11.804c-0.271,0.093 -0.535,0.093 -0.795,0.001c-0.259,-0.093 -0.523,-0.312 -0.794,-0.659c-0.27,-0.346 -0.551,-0.832 -0.842,-1.459c-0.292,-0.627 -0.61,-1.442 -0.954,-2.444c-0.335,-0.975 -0.583,-1.806 -0.744,-2.493c-0.16,-0.687 -0.243,-1.257 -0.247,-1.71c-0.004,-0.453 0.07,-0.789 0.222,-1.008c0.152,-0.219 0.363,-0.375 0.634,-0.468l29.176,-10.03l-4.708,-13.694l-29.176,10.03c-0.271,0.093 -0.538,0.087 -0.802,-0.019c-0.263,-0.107 -0.53,-0.333 -0.801,-0.679c-0.27,-0.346 -0.551,-0.833 -0.842,-1.46c-0.292,-0.627 -0.61,-1.441 -0.954,-2.443c-0.345,-1.003 -0.595,-1.841 -0.751,-2.514c-0.155,-0.674 -0.233,-1.23 -0.233,-1.669c0.001,-0.44 0.077,-0.769 0.229,-0.988c0.152,-0.218 0.363,-0.374 0.634,-0.468l34.336,-11.804c1.084,-0.372 1.983,-0.424 2.696,-0.154c0.714,0.27 1.238,0.892 1.574,1.867z" stroke="null"/>
   <text id="svg_29" y="282.821389" x="614.419729" font-size="46.3719" font-family="Arial,Arial_MSFontService,sans-serif" fill-opacity="0" fill="#000000" stroke="null">п</text>
   <path id="svg_30" fill-rule="evenodd" fill="#FFFFFF" d="m664.07973,309.92339c-0.267,-1.581 -0.79,-2.917 -1.57,-4.005c-0.779,-1.089 -1.791,-1.92 -3.035,-2.495c-1.245,-0.574 -2.683,-0.92 -4.315,-1.036c-1.632,-0.117 -3.451,-0.006 -5.456,0.332c-1.865,0.315 -3.554,0.76 -5.07,1.335c-1.515,0.575 -2.793,1.307 -3.834,2.194c-1.042,0.888 -1.78,1.978 -2.215,3.272c-0.436,1.293 -0.506,2.816 -0.21,4.567c0.272,1.61 0.797,2.96 1.577,4.048c0.779,1.089 1.784,1.921 3.014,2.498c1.23,0.577 2.66,0.917 4.29,1.019c1.63,0.103 3.447,-0.015 5.453,-0.354c1.864,-0.314 3.555,-0.752 5.072,-1.313c1.518,-0.561 2.796,-1.293 3.835,-2.194c1.039,-0.902 1.785,-1.994 2.236,-3.276c0.452,-1.282 0.528,-2.812 0.228,-4.592zm8.495,-1.041c0.573,3.389 0.609,6.404 0.111,9.045c-0.499,2.641 -1.501,4.923 -3.006,6.848c-1.505,1.924 -3.491,3.501 -5.956,4.731c-2.465,1.229 -5.378,2.127 -8.74,2.695c-3.22,0.543 -6.229,0.615 -9.027,0.216c-2.798,-0.399 -5.303,-1.298 -7.515,-2.697c-2.211,-1.399 -4.059,-3.31 -5.543,-5.732c-1.483,-2.422 -2.518,-5.371 -3.105,-8.845c-0.567,-3.361 -0.594,-6.363 -0.082,-9.006c0.513,-2.643 1.521,-4.934 3.024,-6.873c1.503,-1.938 3.487,-3.522 5.952,-4.752c2.465,-1.229 5.364,-2.125 8.698,-2.688c3.22,-0.543 6.237,-0.61 9.052,-0.199c2.814,0.411 5.32,1.318 7.518,2.719c2.197,1.401 4.037,3.306 5.518,5.714c1.481,2.408 2.515,5.349 3.101,8.824z" stroke="null"/>
   <text id="svg_31" y="327.507389" x="629.346729" font-size="41.3107" font-family="Arial,Arial_MSFontService,sans-serif" fill-opacity="0" fill="#000000" stroke="null">о</text>
   <path id="svg_32" fill-rule="evenodd" fill="#FFFFFF" d="m667.69473,361.84839c-0.003,-0.716 -0.113,-1.425 -0.33,-2.126c-0.217,-0.701 -0.571,-1.416 -1.06,-2.145c-0.49,-0.729 -1.122,-1.478 -1.898,-2.249c-0.777,-0.771 -1.739,-1.584 -2.888,-2.439l-12.633,0.043c-1.914,1.525 -3.391,2.977 -4.432,4.355c-1.041,1.379 -1.558,2.813 -1.553,4.302c0.004,1.404 0.367,2.599 1.086,3.585c0.72,0.985 1.661,1.791 2.823,2.418c1.162,0.626 2.475,1.087 3.936,1.383c1.462,0.295 2.924,0.441 4.385,0.436c1.633,-0.006 3.201,-0.133 4.703,-0.382c1.504,-0.248 2.841,-0.668 4.014,-1.26c1.172,-0.591 2.108,-1.368 2.806,-2.33c0.699,-0.962 1.046,-2.159 1.041,-3.591zm9.249,3.148c0.01,2.807 -0.534,5.201 -1.63,7.181c-1.096,1.98 -2.601,3.597 -4.516,4.85c-1.915,1.252 -4.146,2.17 -6.694,2.751c-2.547,0.582 -5.268,0.878 -8.161,0.888c-3.409,0.011 -6.482,-0.343 -9.221,-1.064c-2.738,-0.721 -5.069,-1.78 -6.993,-3.177c-1.924,-1.397 -3.405,-3.14 -4.444,-5.227c-1.038,-2.088 -1.562,-4.478 -1.571,-7.171c-0.004,-1.117 0.1,-2.141 0.311,-3.073c0.212,-0.932 0.538,-1.835 0.979,-2.71c0.441,-0.876 0.99,-1.744 1.646,-2.606c0.656,-0.861 1.426,-1.752 2.311,-2.672l-18.047,0.062c-0.286,0.001 -0.545,-0.084 -0.774,-0.255c-0.23,-0.171 -0.424,-0.464 -0.583,-0.879c-0.159,-0.414 -0.283,-0.965 -0.371,-1.653c-0.089,-0.687 -0.135,-1.56 -0.138,-2.62c-0.004,-1.06 0.036,-1.934 0.12,-2.622c0.083,-0.688 0.203,-1.239 0.359,-1.655c0.156,-0.416 0.349,-0.71 0.577,-0.883c0.229,-0.173 0.486,-0.26 0.773,-0.261l53.538,-0.184c0.287,-0.001 0.538,0.07 0.753,0.212c0.215,0.143 0.395,0.393 0.54,0.75c0.144,0.358 0.253,0.83 0.327,1.417c0.074,0.587 0.112,1.325 0.115,2.213c0.003,0.859 -0.03,1.582 -0.1,2.17c-0.07,0.587 -0.175,1.06 -0.317,1.419c-0.142,0.359 -0.321,0.61 -0.535,0.754c-0.214,0.144 -0.465,0.216 -0.751,0.217l-4.512,0.016c1.15,1.113 2.163,2.205 3.041,3.276c0.877,1.072 1.611,2.165 2.203,3.28c0.591,1.115 1.031,2.267 1.322,3.454c0.291,1.188 0.438,2.455 0.443,3.802z" stroke="null"/>
   <text id="svg_33" y="375.835389" x="619.046729" font-size="38.6501" font-family="Arial,Arial_MSFontService,sans-serif" fill-opacity="0" fill="#000000" stroke="null">р</text>
   <path id="svg_34" fill-rule="evenodd" fill="#FFFFFF" d="m675.00973,389.81739l-4.142,29.791c-0.035,0.256 -0.146,0.479 -0.332,0.67c-0.185,0.191 -0.472,0.332 -0.861,0.423c-0.389,0.09 -0.893,0.129 -1.513,0.115c-0.62,-0.014 -1.369,-0.082 -2.249,-0.205c-0.936,-0.13 -1.711,-0.274 -2.326,-0.431c-0.614,-0.158 -1.096,-0.334 -1.445,-0.527c-0.349,-0.193 -0.58,-0.406 -0.692,-0.638c-0.112,-0.233 -0.151,-0.477 -0.115,-0.732l1.331,-9.576l-29.876,-4.154c-0.284,-0.039 -0.521,-0.159 -0.71,-0.359c-0.189,-0.2 -0.327,-0.508 -0.413,-0.925c-0.087,-0.417 -0.117,-0.978 -0.092,-1.683c0.026,-0.705 0.112,-1.582 0.258,-2.632c0.142,-1.022 0.296,-1.868 0.461,-2.539c0.166,-0.671 0.348,-1.202 0.547,-1.594c0.199,-0.392 0.416,-0.651 0.651,-0.777c0.234,-0.127 0.493,-0.17 0.777,-0.131l29.877,4.154l1.331,-9.576c0.04,-0.283 0.152,-0.521 0.338,-0.712c0.185,-0.191 0.472,-0.332 0.861,-0.422c0.389,-0.091 0.914,-0.126 1.577,-0.106c0.662,0.019 1.461,0.094 2.398,0.225c0.851,0.118 1.561,0.26 2.131,0.426c0.57,0.166 1.029,0.346 1.379,0.539c0.349,0.193 0.587,0.4 0.716,0.62c0.128,0.22 0.173,0.472 0.133,0.756z" stroke="null"/>
   <text id="svg_35" y="416.622389" x="631.565729" font-size="33.5733" font-family="Arial,Arial_MSFontService,sans-serif" fill-opacity="0" fill="#000000" stroke="null">т</text>
   <path id="svg_36" fill-rule="evenodd" fill="#FFFFFF" d="m667.48773,436.21739c-0.57,1.953 -1.108,3.288 -1.616,4.005c-0.508,0.717 -1.023,1 -1.545,0.848l-16.335,-4.765c-1.128,-0.328 -2.284,-0.71 -3.47,-1.146c-1.186,-0.435 -2.323,-0.886 -3.41,-1.352c0.907,0.98 1.804,1.973 2.689,2.977c0.886,1.005 1.726,2.04 2.518,3.107l13.256,17.472c0.238,0.309 0.424,0.617 0.558,0.924c0.135,0.308 0.209,0.665 0.225,1.073c0.015,0.407 -0.028,0.887 -0.129,1.439c-0.101,0.552 -0.276,1.255 -0.525,2.107c-0.281,0.963 -0.541,1.752 -0.78,2.369c-0.24,0.616 -0.482,1.09 -0.728,1.421c-0.246,0.331 -0.499,0.534 -0.759,0.607c-0.26,0.073 -0.528,0.07 -0.803,-0.01l-36.919,-10.767c-0.275,-0.081 -0.486,-0.224 -0.635,-0.432c-0.148,-0.207 -0.228,-0.522 -0.24,-0.943c-0.011,-0.421 0.05,-0.962 0.183,-1.625c0.134,-0.662 0.345,-1.488 0.634,-2.478c0.288,-0.99 0.559,-1.814 0.81,-2.472c0.252,-0.657 0.501,-1.181 0.749,-1.572c0.249,-0.39 0.495,-0.646 0.739,-0.769c0.245,-0.122 0.505,-0.143 0.78,-0.063l16.418,4.788c1.155,0.337 2.341,0.72 3.558,1.15c1.218,0.429 2.398,0.885 3.54,1.368c-0.962,-0.997 -1.888,-2.043 -2.778,-3.138c-0.889,-1.095 -1.767,-2.201 -2.634,-3.32l-13.251,-17.336c-0.23,-0.336 -0.416,-0.644 -0.558,-0.924c-0.142,-0.28 -0.225,-0.61 -0.249,-0.99c-0.023,-0.38 0.021,-0.837 0.132,-1.372c0.111,-0.534 0.287,-1.214 0.527,-2.039c0.289,-0.99 0.551,-1.786 0.787,-2.389c0.235,-0.603 0.469,-1.072 0.701,-1.407c0.232,-0.335 0.473,-0.548 0.723,-0.639c0.251,-0.091 0.514,-0.097 0.788,-0.017l36.919,10.767c0.248,0.073 0.453,0.214 0.615,0.426c0.162,0.211 0.254,0.536 0.275,0.975c0.021,0.439 -0.028,0.992 -0.148,1.658c-0.12,0.666 -0.324,1.494 -0.612,2.484z" stroke="null"/>
   <text id="svg_37" y="461.417389" x="618.838729" font-size="47.5045" font-family="Arial,Arial_MSFontService,sans-serif" fill-opacity="0" fill="#000000" stroke="null">и</text>
   <path id="svg_38" fill-rule="evenodd" fill="#FFFFFF" d="m627.19873,481.18739l-9.924,-4.746c-0.249,0.389 -0.502,0.8 -0.757,1.234c-0.255,0.433 -0.506,0.877 -0.755,1.329c-0.248,0.453 -0.487,0.903 -0.716,1.349c-0.229,0.446 -0.43,0.85 -0.603,1.211c-0.655,1.37 -1.095,2.605 -1.319,3.704c-0.224,1.099 -0.252,2.071 -0.084,2.913c0.169,0.843 0.515,1.564 1.038,2.163c0.523,0.6 1.185,1.091 1.986,1.474c0.827,0.396 1.615,0.606 2.365,0.632c0.75,0.025 1.483,-0.18 2.2,-0.616c0.716,-0.435 1.415,-1.117 2.097,-2.045c0.682,-0.928 1.363,-2.102 2.043,-3.524l2.429,-5.078zm12.281,12.066c0.469,-0.982 0.885,-1.918 1.248,-2.808c0.362,-0.891 0.659,-1.678 0.89,-2.361l-8.721,-4.171l-2.503,5.233c-1.051,2.196 -1.457,4.058 -1.219,5.585c0.238,1.527 1.107,2.649 2.606,3.366c0.697,0.334 1.376,0.507 2.036,0.521c0.66,0.015 1.308,-0.16 1.942,-0.524c0.634,-0.363 1.261,-0.944 1.882,-1.743c0.62,-0.799 1.233,-1.832 1.839,-3.098zm6.63,3.267c-1.323,2.765 -2.657,5.056 -4.002,6.873c-1.346,1.818 -2.725,3.19 -4.137,4.118c-1.413,0.928 -2.845,1.434 -4.298,1.517c-1.453,0.083 -2.954,-0.246 -4.505,-0.988c-2.093,-1.001 -3.569,-2.397 -4.427,-4.189c-0.857,-1.791 -1.031,-3.851 -0.521,-6.179c-1.713,2.387 -3.673,3.911 -5.878,4.571c-2.205,0.66 -4.522,0.409 -6.951,-0.752c-1.99,-0.952 -3.558,-2.155 -4.705,-3.608c-1.146,-1.453 -1.859,-3.168 -2.137,-5.142c-0.278,-1.975 -0.137,-4.21 0.421,-6.705c0.558,-2.496 1.567,-5.268 3.025,-8.318c0.483,-1.008 0.937,-1.941 1.364,-2.801c0.427,-0.859 0.848,-1.69 1.263,-2.492c0.415,-0.801 0.844,-1.597 1.285,-2.386c0.441,-0.789 0.935,-1.624 1.484,-2.505c0.684,-1.165 1.46,-1.858 2.327,-2.078c0.868,-0.22 1.921,-0.034 3.162,0.559l29.809,14.258c1.188,0.568 1.969,1.243 2.342,2.025c0.372,0.781 0.382,1.707 0.029,2.776c-0.257,0.671 -0.561,1.439 -0.911,2.303c-0.35,0.865 -0.741,1.798 -1.171,2.798c-0.431,1.001 -0.887,2.037 -1.368,3.109c-0.481,1.072 -0.981,2.15 -1.5,3.236z" stroke="null"/>
   <text id="svg_39" y="503.581389" x="604.410729" font-size="43.6744" font-family="Arial,Arial_MSFontService,sans-serif" fill-opacity="0" fill="#000000" stroke="null">в</text>
   <path id="svg_40" fill-rule="evenodd" fill="#FFFFFF" d="m627.79973,529.45439c-0.604,0.871 -1.131,1.569 -1.582,2.093c-0.45,0.524 -0.853,0.916 -1.207,1.176c-0.354,0.26 -0.669,0.399 -0.943,0.418c-0.275,0.019 -0.53,-0.054 -0.765,-0.217l-11.795,-8.176l-8.837,12.749l11.795,8.176c0.235,0.163 0.393,0.376 0.471,0.64c0.079,0.264 0.063,0.601 -0.048,1.012c-0.111,0.412 -0.337,0.926 -0.677,1.544c-0.341,0.617 -0.814,1.361 -1.418,2.233c-0.587,0.847 -1.11,1.539 -1.569,2.075c-0.459,0.536 -0.861,0.928 -1.207,1.176c-0.346,0.248 -0.657,0.381 -0.931,0.4c-0.275,0.019 -0.53,-0.053 -0.765,-0.216l-31.501,-21.835c-0.235,-0.163 -0.392,-0.377 -0.471,-0.641c-0.078,-0.263 -0.062,-0.601 0.048,-1.012c0.111,-0.411 0.337,-0.925 0.678,-1.543c0.341,-0.617 0.805,-1.35 1.393,-2.198c0.603,-0.871 1.135,-1.574 1.593,-2.11c0.459,-0.536 0.862,-0.928 1.208,-1.176c0.346,-0.248 0.656,-0.382 0.931,-0.401c0.274,-0.018 0.529,0.054 0.765,0.217l12.395,8.592l8.837,-12.749l-12.396,-8.592c-0.235,-0.163 -0.392,-0.376 -0.471,-0.64c-0.078,-0.264 -0.058,-0.607 0.061,-1.03c0.119,-0.423 0.344,-0.937 0.677,-1.543c0.333,-0.606 0.801,-1.344 1.405,-2.215c0.604,-0.871 1.131,-1.569 1.582,-2.093c0.45,-0.525 0.852,-0.917 1.207,-1.176c0.354,-0.26 0.669,-0.4 0.943,-0.418c0.275,-0.019 0.53,0.053 0.765,0.216l31.5,21.835c0.236,0.163 0.393,0.377 0.472,0.64c0.078,0.264 0.058,0.607 -0.061,1.03c-0.119,0.423 -0.345,0.938 -0.677,1.543c-0.333,0.606 -0.801,1.345 -1.405,2.216z" stroke="null"/>
   <text id="svg_41" y="548.158389" x="576.300729" font-size="52.7855" font-family="Arial,Arial_MSFontService,sans-serif" fill-opacity="0" fill="#000000" stroke="null">н</text>
   <path id="svg_42" fill-rule="evenodd" fill="#FFFFFF" d="m570.22373,563.92239c1.209,-1.262 2.146,-2.427 2.812,-3.495c0.666,-1.067 1.081,-2.059 1.243,-2.974c0.163,-0.915 0.105,-1.755 -0.175,-2.519c-0.28,-0.764 -0.761,-1.473 -1.444,-2.127c-1.158,-1.109 -2.42,-1.614 -3.785,-1.514c-1.366,0.1 -2.673,0.802 -3.921,2.105c-1.05,1.096 -1.737,2.372 -2.061,3.828c-0.323,1.455 -0.403,3.174 -0.239,5.156l4.716,4.518l2.854,-2.978zm19.202,15.361c-2.081,2.172 -4.072,3.825 -5.972,4.96c-1.901,1.135 -3.766,1.778 -5.596,1.928c-1.831,0.151 -3.657,-0.21 -5.479,-1.083c-1.822,-0.873 -3.684,-2.221 -5.587,-4.044l-18.616,-17.835c-0.29,-0.278 -0.418,-0.599 -0.386,-0.965c0.033,-0.365 0.226,-0.805 0.58,-1.319c0.354,-0.514 0.947,-1.205 1.779,-2.074c0.892,-0.931 1.577,-1.574 2.056,-1.928c0.478,-0.355 0.885,-0.541 1.218,-0.558c0.334,-0.017 0.646,0.113 0.936,0.39l2.203,2.111c-0.131,-2.307 0.161,-4.517 0.876,-6.629c0.714,-2.112 1.924,-4.058 3.628,-5.837c1.407,-1.468 2.891,-2.635 4.453,-3.499c1.562,-0.864 3.151,-1.384 4.768,-1.561c1.618,-0.176 3.222,0.022 4.815,0.596c1.593,0.574 3.133,1.574 4.623,3.001c1.613,1.546 2.712,3.204 3.297,4.974c0.585,1.77 0.666,3.653 0.243,5.648c-0.423,1.994 -1.341,4.101 -2.752,6.319c-1.411,2.218 -3.296,4.558 -5.654,7.02l-2.586,2.699l1.675,1.605c0.869,0.833 1.713,1.473 2.533,1.921c0.82,0.449 1.641,0.679 2.462,0.692c0.82,0.013 1.656,-0.218 2.507,-0.692c0.851,-0.474 1.752,-1.207 2.703,-2.2c1.249,-1.303 2.219,-2.606 2.91,-3.907c0.692,-1.301 1.238,-2.513 1.639,-3.636c0.402,-1.123 0.71,-2.087 0.926,-2.892c0.216,-0.805 0.482,-1.373 0.799,-1.704c0.218,-0.227 0.484,-0.36 0.797,-0.397c0.313,-0.037 0.659,0.017 1.037,0.16c0.378,0.144 0.793,0.373 1.245,0.688c0.453,0.314 0.917,0.7 1.393,1.155c0.641,0.615 1.098,1.152 1.371,1.612c0.274,0.46 0.422,0.979 0.444,1.556c0.023,0.577 -0.132,1.4 -0.464,2.471c-0.331,1.071 -0.808,2.241 -1.429,3.511c-0.621,1.269 -1.383,2.572 -2.287,3.908c-0.903,1.336 -1.939,2.615 -3.108,3.835z" stroke="null"/>
   <text id="svg_43" y="580.589389" x="547.784729" font-size="44.9265" font-family="Arial,Arial_MSFontService,sans-serif" fill-opacity="0" fill="#000000" stroke="null">а</text>
   <path id="svg_44" fill-rule="evenodd" fill="#FFFFFF" d="m547.72973,606.10039c1.204,-0.924 2.123,-1.809 2.755,-2.656c0.633,-0.846 1.042,-1.665 1.229,-2.458c0.186,-0.793 0.169,-1.556 -0.051,-2.29c-0.22,-0.734 -0.583,-1.43 -1.088,-2.089c-0.541,-0.705 -1.144,-1.244 -1.81,-1.618c-0.666,-0.374 -1.398,-0.552 -2.197,-0.535c-0.799,0.017 -1.665,0.23 -2.597,0.638c-0.933,0.409 -2.058,1.118 -3.376,2.13l-3.682,2.824l6.694,8.728c0.724,-0.374 1.444,-0.8 2.161,-1.278c0.717,-0.478 1.371,-0.943 1.962,-1.396zm4.123,6.152c-0.705,0.54 -1.492,1.126 -2.362,1.757c-0.87,0.631 -1.76,1.259 -2.67,1.885c-0.91,0.626 -1.813,1.237 -2.709,1.834c-0.896,0.597 -1.699,1.114 -2.411,1.552c-0.785,0.53 -1.538,0.701 -2.259,0.514c-0.721,-0.187 -1.369,-0.656 -1.944,-1.406l-22.177,-28.912c-0.192,-0.25 -0.302,-0.499 -0.33,-0.748c-0.029,-0.249 0.067,-0.548 0.287,-0.897c0.219,-0.349 0.59,-0.76 1.112,-1.232c0.522,-0.473 1.238,-1.058 2.147,-1.755c0.818,-0.628 1.518,-1.128 2.098,-1.501c0.58,-0.373 1.079,-0.629 1.496,-0.768c0.416,-0.139 0.753,-0.172 1.008,-0.097c0.256,0.074 0.48,0.237 0.672,0.487l8.813,11.49l2.25,-1.727c1.046,-0.801 1.801,-1.534 2.267,-2.198c0.465,-0.664 0.775,-1.425 0.929,-2.284c0.154,-0.858 0.155,-1.833 0.003,-2.926c-0.153,-1.093 -0.457,-2.384 -0.915,-3.875l-1.989,-6.759c-0.125,-0.446 -0.174,-0.85 -0.147,-1.214c0.028,-0.365 0.186,-0.747 0.474,-1.149c0.287,-0.401 0.709,-0.851 1.266,-1.35c0.556,-0.498 1.288,-1.097 2.197,-1.794c0.796,-0.61 1.475,-1.113 2.038,-1.509c0.563,-0.395 1.041,-0.69 1.434,-0.883c0.394,-0.194 0.716,-0.279 0.969,-0.256c0.252,0.023 0.474,0.16 0.666,0.41c0.192,0.25 0.381,0.673 0.568,1.27c0.187,0.597 0.443,1.601 0.768,3.013l1.607,6.402c0.467,1.88 0.628,3.643 0.483,5.289c-0.146,1.646 -0.612,3.132 -1.4,4.458c2.52,-1.138 4.918,-1.507 7.194,-1.104c2.276,0.402 4.251,1.694 5.925,3.876c1.238,1.614 2.025,3.311 2.362,5.092c0.338,1.781 0.204,3.608 -0.4,5.479c-0.604,1.872 -1.678,3.778 -3.221,5.72c-1.544,1.942 -3.577,3.88 -6.099,5.816z" stroke="null"/>
   <text id="svg_45" y="613.200389" x="514.985729" font-size="53.3395" font-family="Arial,Arial_MSFontService,sans-serif" fill-opacity="0" fill="#000000" stroke="null">я</text>
   <path id="svg_46" fill-rule="evenodd" fill="#FFFFFF" d="m461.87673,660.46639c-1.027,0.264 -1.875,0.445 -2.545,0.543c-0.669,0.099 -1.209,0.126 -1.62,0.084c-0.41,-0.042 -0.718,-0.148 -0.924,-0.317c-0.206,-0.169 -0.345,-0.392 -0.416,-0.669l-7.662,-29.796l-11.777,3.028l7.662,29.796c0.071,0.278 0.064,0.538 -0.021,0.782c-0.085,0.244 -0.283,0.48 -0.594,0.707c-0.312,0.228 -0.784,0.461 -1.418,0.698c-0.634,0.237 -1.451,0.484 -2.45,0.741c-0.998,0.256 -1.847,0.438 -2.544,0.543c-0.698,0.105 -1.252,0.137 -1.662,0.095c-0.41,-0.043 -0.725,-0.147 -0.945,-0.312c-0.22,-0.165 -0.366,-0.387 -0.437,-0.664l-7.662,-29.796l-11.777,3.028l7.662,29.796c0.071,0.278 0.057,0.54 -0.042,0.788c-0.099,0.247 -0.325,0.49 -0.677,0.728c-0.353,0.239 -0.846,0.477 -1.481,0.714c-0.634,0.237 -1.45,0.484 -2.449,0.741c-1.026,0.264 -1.888,0.448 -2.586,0.554c-0.698,0.105 -1.265,0.14 -1.703,0.105c-0.438,-0.035 -0.774,-0.134 -1.008,-0.296c-0.234,-0.161 -0.386,-0.381 -0.458,-0.658l-9.042,-35.165c-0.286,-1.109 -0.266,-2.009 0.06,-2.699c0.325,-0.69 0.987,-1.164 1.986,-1.421l48.606,-12.499c0.999,-0.257 1.807,-0.161 2.425,0.286c0.618,0.448 1.07,1.226 1.355,2.336l9.043,35.164c0.071,0.278 0.05,0.542 -0.063,0.793c-0.113,0.251 -0.36,0.499 -0.74,0.745c-0.381,0.246 -0.902,0.491 -1.564,0.735c-0.661,0.244 -1.506,0.498 -2.532,0.762z" stroke="null"/>
   <text id="svg_47" y="665.785389" x="403.100729" font-size="52.8914" font-family="Arial,Arial_MSFontService,sans-serif" fill-opacity="0" fill="#000000" stroke="null">ш</text>
   <path id="svg_48" fill-rule="evenodd" fill="#FFFFFF" d="m390.99673,674.83039c-0.973,0.061 -1.804,0.077 -2.494,0.049c-0.691,-0.029 -1.255,-0.094 -1.692,-0.196c-0.437,-0.102 -0.761,-0.239 -0.973,-0.413c-0.211,-0.173 -0.324,-0.36 -0.336,-0.56l-0.93,-14.881l-2.187,0.137c-0.887,0.055 -1.68,0.212 -2.382,0.471c-0.701,0.26 -1.329,0.657 -1.884,1.194c-0.555,0.537 -1.057,1.236 -1.505,2.096c-0.449,0.861 -0.863,1.92 -1.244,3.178l-2.701,8.435c-0.068,0.291 -0.196,0.55 -0.382,0.777c-0.187,0.227 -0.484,0.418 -0.89,0.572c-0.407,0.155 -0.973,0.284 -1.698,0.387c-0.726,0.102 -1.689,0.191 -2.89,0.266c-1.057,0.066 -1.924,0.092 -2.6,0.077c-0.675,-0.016 -1.209,-0.068 -1.602,-0.159c-0.393,-0.09 -0.666,-0.209 -0.819,-0.357c-0.153,-0.149 -0.236,-0.337 -0.251,-0.566c-0.018,-0.286 0.018,-0.632 0.107,-1.04c0.09,-0.407 0.256,-0.963 0.499,-1.667l2.589,-7.481c0.509,-1.495 1.068,-2.772 1.677,-3.829c0.608,-1.057 1.242,-1.936 1.901,-2.637c0.66,-0.701 1.334,-1.275 2.024,-1.72c0.69,-0.444 1.356,-0.802 1.999,-1.072l-0.005,-0.085c-0.909,-0.317 -1.764,-0.665 -2.562,-1.046c-0.799,-0.38 -1.57,-0.892 -2.313,-1.534c-0.744,-0.643 -1.469,-1.451 -2.176,-2.426c-0.706,-0.975 -1.419,-2.157 -2.137,-3.547l-4.267,-8.344c-0.195,-0.361 -0.351,-0.674 -0.468,-0.94c-0.117,-0.265 -0.211,-0.503 -0.281,-0.714c-0.071,-0.211 -0.118,-0.387 -0.141,-0.529c-0.023,-0.142 -0.039,-0.27 -0.046,-0.385c-0.014,-0.228 0.053,-0.426 0.2,-0.593c0.147,-0.168 0.418,-0.314 0.812,-0.439c0.394,-0.125 0.94,-0.238 1.636,-0.339c0.697,-0.101 1.575,-0.184 2.633,-0.25c1.2,-0.075 2.188,-0.109 2.964,-0.1c0.775,0.009 1.395,0.05 1.859,0.121c0.463,0.071 0.802,0.201 1.014,0.389c0.213,0.187 0.385,0.42 0.518,0.699l4.13,8.912c0.506,1.203 1.035,2.203 1.587,3.001c0.552,0.798 1.144,1.428 1.775,1.891c0.632,0.463 1.341,0.777 2.126,0.943c0.785,0.166 1.678,0.218 2.679,0.156l2.187,-0.137l-0.976,-15.61c-0.012,-0.2 0.076,-0.4 0.264,-0.598c0.189,-0.198 0.493,-0.382 0.913,-0.552c0.42,-0.17 0.971,-0.312 1.652,-0.426c0.682,-0.115 1.509,-0.202 2.481,-0.263c1.001,-0.062 1.846,-0.079 2.537,-0.051c0.691,0.029 1.255,0.101 1.693,0.217c0.437,0.116 0.755,0.262 0.952,0.436c0.198,0.174 0.303,0.361 0.315,0.561l2.421,38.726c0.012,0.2 -0.068,0.398 -0.243,0.596c-0.174,0.197 -0.471,0.374 -0.892,0.529c-0.421,0.156 -0.972,0.291 -1.654,0.405c-0.682,0.114 -1.523,0.203 -2.523,0.265z" stroke="null"/>
   <text id="svg_49" y="671.005389" x="357.934729" font-size="43.3411" font-family="Arial,Arial_MSFontService,sans-serif" fill-opacity="0" fill="#000000" stroke="null">к</text>
   <path id="svg_50" fill-rule="evenodd" fill="#FFFFFF" d="m332.59473,666.94339c1.598,0.144 3.022,-0.022 4.273,-0.499c1.251,-0.477 2.313,-1.244 3.185,-2.301c0.872,-1.058 1.572,-2.361 2.1,-3.909c0.528,-1.549 0.883,-3.336 1.066,-5.362c0.17,-1.883 0.169,-3.63 -0.002,-5.242c-0.171,-1.612 -0.553,-3.034 -1.147,-4.267c-0.593,-1.232 -1.46,-2.224 -2.6,-2.974c-1.141,-0.75 -2.595,-1.205 -4.364,-1.364c-1.626,-0.147 -3.065,0.018 -4.316,0.495c-1.251,0.477 -2.312,1.237 -3.182,2.28c-0.871,1.043 -1.563,2.34 -2.077,3.89c-0.514,1.55 -0.862,3.337 -1.045,5.363c-0.17,1.883 -0.176,3.63 -0.02,5.24c0.157,1.611 0.539,3.033 1.147,4.267c0.608,1.234 1.474,2.233 2.599,2.995c1.125,0.763 2.586,1.226 4.383,1.388zm-1.153,8.482c-3.424,-0.309 -6.349,-1.041 -8.776,-2.194c-2.427,-1.154 -4.38,-2.703 -5.858,-4.649c-1.478,-1.945 -2.499,-4.266 -3.061,-6.963c-0.562,-2.697 -0.69,-5.743 -0.383,-9.138c0.293,-3.252 0.989,-6.181 2.087,-8.785c1.097,-2.605 2.604,-4.799 4.519,-6.582c1.916,-1.783 4.233,-3.084 6.953,-3.903c2.72,-0.819 5.835,-1.07 9.344,-0.753c3.395,0.306 6.305,1.043 8.731,2.211c2.426,1.168 4.385,2.725 5.878,4.672c1.492,1.947 2.52,4.268 3.082,6.965c0.562,2.697 0.691,5.729 0.387,9.095c-0.293,3.253 -0.997,6.188 -2.11,8.805c-1.113,2.618 -2.627,4.811 -4.541,6.58c-1.914,1.769 -4.224,3.063 -6.93,3.883c-2.705,0.82 -5.813,1.072 -9.322,0.756z" stroke="null"/>
   <text id="svg_51" y="670.153389" x="313.201729" font-size="43.2314" font-family="Arial,Arial_MSFontService,sans-serif" fill-opacity="0" fill="#000000" stroke="null">о</text>
   <path id="svg_52" fill-rule="evenodd" fill="#FFFFFF" d="m290.23473,667.76839l-21.52,-5.511c-0.972,-0.248 -1.622,-0.711 -1.952,-1.386c-0.329,-0.676 -0.348,-1.583 -0.057,-2.721l8.986,-35.09c0.071,-0.278 0.216,-0.499 0.436,-0.665c0.22,-0.165 0.542,-0.268 0.966,-0.307c0.424,-0.039 0.985,-0.006 1.682,0.098c0.698,0.105 1.546,0.285 2.545,0.541c1.027,0.263 1.871,0.516 2.534,0.76c0.662,0.243 1.176,0.486 1.543,0.728c0.367,0.242 0.6,0.486 0.699,0.733c0.1,0.247 0.114,0.51 0.043,0.787l-7.686,30.012l7.535,1.93c1.559,-4.243 3.086,-7.926 4.58,-11.047c1.495,-3.122 2.977,-5.765 4.449,-7.932c1.471,-2.166 2.928,-3.9 4.37,-5.201c1.442,-1.301 2.905,-2.25 4.388,-2.846c1.484,-0.596 3.003,-0.902 4.56,-0.917c1.556,-0.016 3.139,0.183 4.749,0.595c0.388,0.099 0.693,0.237 0.914,0.411c0.222,0.175 0.361,0.44 0.418,0.795c0.057,0.355 0.035,0.844 -0.066,1.469c-0.101,0.625 -0.279,1.437 -0.535,2.436c-0.263,1.026 -0.497,1.854 -0.702,2.481c-0.205,0.628 -0.407,1.101 -0.607,1.419c-0.2,0.319 -0.411,0.508 -0.634,0.57c-0.223,0.061 -0.473,0.056 -0.75,-0.015c-0.777,-0.199 -1.56,-0.229 -2.35,-0.092c-0.789,0.138 -1.601,0.537 -2.435,1.196c-0.834,0.658 -1.701,1.589 -2.6,2.793c-0.9,1.204 -1.849,2.772 -2.846,4.705c-0.998,1.933 -2.069,4.268 -3.214,7.006c-1.144,2.738 -2.394,5.944 -3.749,9.618c-0.347,1.124 -0.806,1.908 -1.379,2.353c-0.572,0.445 -1.344,0.543 -2.315,0.294z" stroke="null"/>
   <text id="svg_53" y="662.173389" x="266.500729" font-size="45.8299" font-family="Arial,Arial_MSFontService,sans-serif" fill-opacity="0" fill="#000000" stroke="null">л</text>
   <path id="svg_54" fill-rule="evenodd" fill="#FFFFFF" d="m244.25473,627.86739c1.604,0.693 3.022,1.166 4.255,1.419c1.233,0.252 2.307,0.295 3.221,0.129c0.915,-0.166 1.681,-0.513 2.3,-1.041c0.619,-0.529 1.116,-1.227 1.491,-2.094c0.637,-1.472 0.671,-2.831 0.101,-4.076c-0.569,-1.245 -1.682,-2.226 -3.338,-2.943c-1.394,-0.602 -2.829,-0.802 -4.306,-0.598c-1.477,0.204 -3.116,0.727 -4.917,1.571l-2.593,5.995l3.786,1.638zm-7.713,23.349c-2.76,-1.195 -5.004,-2.485 -6.729,-3.871c-1.726,-1.386 -2.978,-2.911 -3.756,-4.575c-0.779,-1.663 -1.076,-3.5 -0.893,-5.512c0.184,-2.012 0.799,-4.227 1.845,-6.646l10.236,-23.662c0.16,-0.368 0.416,-0.6 0.77,-0.697c0.354,-0.097 0.833,-0.069 1.438,0.084c0.605,0.152 1.46,0.468 2.564,0.945c1.183,0.512 2.025,0.93 2.524,1.256c0.499,0.325 0.815,0.641 0.947,0.948c0.133,0.307 0.119,0.644 -0.04,1.013l-1.211,2.8c2.117,-0.926 4.29,-1.422 6.519,-1.488c2.229,-0.065 4.474,0.391 6.735,1.369c1.866,0.807 3.476,1.793 4.83,2.956c1.354,1.163 2.396,2.472 3.124,3.926c0.729,1.454 1.101,3.028 1.118,4.721c0.017,1.692 -0.384,3.485 -1.203,5.378c-0.887,2.051 -2.059,3.659 -3.514,4.823c-1.456,1.165 -3.193,1.897 -5.21,2.195c-2.017,0.297 -4.311,0.171 -6.882,-0.379c-2.571,-0.551 -5.421,-1.503 -8.549,-2.856l-3.431,-1.484l-0.922,2.129c-0.477,1.105 -0.783,2.119 -0.918,3.044c-0.135,0.925 -0.066,1.774 0.208,2.548c0.274,0.774 0.781,1.477 1.522,2.11c0.741,0.632 1.742,1.222 3.004,1.768c1.657,0.716 3.215,1.172 4.676,1.367c1.46,0.195 2.787,0.285 3.979,0.27c1.193,-0.015 2.204,-0.061 3.033,-0.139c0.83,-0.078 1.455,-0.026 1.876,0.156c0.289,0.125 0.506,0.328 0.649,0.608c0.144,0.281 0.215,0.624 0.211,1.028c-0.003,0.404 -0.073,0.873 -0.21,1.407c-0.138,0.534 -0.337,1.103 -0.599,1.707c-0.352,0.815 -0.696,1.431 -1.033,1.847c-0.336,0.417 -0.77,0.736 -1.303,0.958c-0.533,0.222 -1.36,0.364 -2.479,0.426c-1.119,0.062 -2.382,0.023 -3.788,-0.117c-1.406,-0.14 -2.893,-0.401 -4.46,-0.783c-1.568,-0.381 -3.127,-0.907 -4.678,-1.578z" stroke="null"/>
   <text id="svg_55" y="647.782389" x="225.111729" font-size="47.5258" font-family="Arial,Arial_MSFontService,sans-serif" fill-opacity="0" fill="#000000" stroke="null">а</text>
   <path id="svg_56" fill-rule="evenodd" fill="#FFFFFF" d="m157.84873,569.53139c1.259,1.212 2.421,2.153 3.487,2.822c1.066,0.669 2.056,1.086 2.971,1.251c0.914,0.166 1.754,0.109 2.519,-0.168c0.765,-0.278 1.475,-0.757 2.131,-1.438c1.113,-1.155 1.621,-2.415 1.525,-3.781c-0.097,-1.366 -0.794,-2.675 -2.094,-3.927c-1.093,-1.053 -2.367,-1.744 -3.822,-2.071c-1.455,-0.328 -3.173,-0.412 -5.156,-0.254l-4.531,4.704l2.97,2.862zm-15.415,19.158c-2.166,-2.087 -3.814,-4.082 -4.943,-5.986c-1.13,-1.904 -1.767,-3.771 -1.913,-5.602c-0.145,-1.83 0.221,-3.655 1.099,-5.475c0.878,-1.819 2.231,-3.678 4.059,-5.576l17.888,-18.566c0.279,-0.288 0.6,-0.416 0.966,-0.382c0.365,0.033 0.804,0.228 1.317,0.583c0.513,0.355 1.203,0.95 2.07,1.785c0.928,0.894 1.569,1.581 1.922,2.061c0.353,0.48 0.538,0.886 0.554,1.22c0.017,0.334 -0.114,0.646 -0.392,0.935l-2.117,2.196c2.307,-0.123 4.516,0.175 6.626,0.895c2.11,0.721 4.052,1.936 5.827,3.645c1.464,1.411 2.626,2.899 3.486,4.463c0.86,1.564 1.376,3.155 1.548,4.773c0.171,1.617 -0.032,3.221 -0.61,4.812c-0.578,1.591 -1.583,3.129 -3.014,4.615c-1.55,1.609 -3.211,2.703 -4.983,3.283c-1.772,0.58 -3.655,0.656 -5.648,0.227c-1.994,-0.429 -4.098,-1.352 -6.312,-2.77c-2.214,-1.417 -4.549,-3.308 -7.004,-5.674l-2.692,-2.593l-1.61,1.671c-0.834,0.866 -1.477,1.709 -1.928,2.527c-0.451,0.819 -0.684,1.639 -0.699,2.46c-0.015,0.82 0.213,1.657 0.685,2.509c0.472,0.852 1.203,1.755 2.193,2.71c1.3,1.252 2.599,2.225 3.898,2.92c1.3,0.695 2.51,1.245 3.632,1.65c1.122,0.404 2.085,0.716 2.889,0.934c0.805,0.218 1.372,0.486 1.702,0.804c0.227,0.218 0.358,0.484 0.395,0.798c0.036,0.313 -0.019,0.658 -0.164,1.036c-0.144,0.377 -0.375,0.792 -0.691,1.243c-0.315,0.452 -0.702,0.915 -1.159,1.39c-0.616,0.639 -1.154,1.095 -1.615,1.367c-0.461,0.272 -0.98,0.418 -1.557,0.439c-0.577,0.021 -1.401,-0.136 -2.471,-0.471c-1.069,-0.334 -2.238,-0.814 -3.506,-1.439c-1.267,-0.625 -2.568,-1.39 -3.902,-2.298c-1.334,-0.907 -2.609,-1.947 -3.826,-3.119z" stroke="null"/>
   <text id="svg_57" y="589.903389" x="135.546729" font-size="48.9213" font-family="Arial,Arial_MSFontService,sans-serif" fill-opacity="0" fill="#000000" stroke="null">а</text>
   <path id="svg_58" fill-rule="evenodd" fill="#FFFFFF" d="m117.35873,560.79439c-0.592,-0.774 -1.067,-1.456 -1.428,-2.045c-0.36,-0.59 -0.619,-1.095 -0.778,-1.515c-0.158,-0.42 -0.224,-0.766 -0.198,-1.038c0.026,-0.272 0.119,-0.469 0.278,-0.591l11.85,-9.05l-1.33,-1.742c-0.539,-0.705 -1.111,-1.278 -1.717,-1.716c-0.605,-0.439 -1.285,-0.74 -2.04,-0.902c-0.755,-0.162 -1.614,-0.191 -2.579,-0.085c-0.964,0.106 -2.075,0.35 -3.332,0.734l-8.513,2.446c-0.28,0.106 -0.566,0.144 -0.858,0.115c-0.293,-0.029 -0.616,-0.169 -0.971,-0.421c-0.354,-0.252 -0.776,-0.651 -1.265,-1.197c-0.489,-0.545 -1.098,-1.296 -1.829,-2.253c-0.643,-0.842 -1.146,-1.548 -1.509,-2.118c-0.363,-0.569 -0.617,-1.043 -0.76,-1.42c-0.144,-0.377 -0.197,-0.67 -0.158,-0.879c0.038,-0.21 0.148,-0.384 0.33,-0.523c0.228,-0.174 0.536,-0.337 0.924,-0.489c0.388,-0.153 0.943,-0.324 1.663,-0.513l7.657,-2.009c1.526,-0.409 2.898,-0.655 4.114,-0.737c1.217,-0.082 2.3,-0.044 3.25,0.114c0.949,0.158 1.801,0.399 2.554,0.725c0.754,0.326 1.421,0.681 2.003,1.066l0.069,-0.053c-0.243,-0.931 -0.429,-1.835 -0.557,-2.71c-0.128,-0.876 -0.131,-1.801 -0.011,-2.776c0.12,-0.975 0.389,-2.028 0.806,-3.157c0.417,-1.13 1.003,-2.379 1.759,-3.75l4.561,-8.187c0.192,-0.362 0.365,-0.666 0.521,-0.911c0.155,-0.245 0.301,-0.455 0.437,-0.631c0.136,-0.176 0.256,-0.313 0.361,-0.411c0.105,-0.099 0.204,-0.183 0.295,-0.252c0.182,-0.139 0.383,-0.194 0.604,-0.164c0.221,0.029 0.493,0.173 0.816,0.431c0.323,0.258 0.72,0.648 1.192,1.171c0.471,0.523 1.029,1.206 1.672,2.048c0.73,0.956 1.307,1.759 1.731,2.409c0.424,0.649 0.735,1.186 0.934,1.611c0.198,0.425 0.279,0.779 0.241,1.06c-0.037,0.281 -0.135,0.554 -0.293,0.819l-5.109,8.389c-0.719,1.089 -1.256,2.085 -1.612,2.988c-0.355,0.902 -0.55,1.745 -0.583,2.527c-0.034,0.782 0.099,1.546 0.398,2.291c0.298,0.745 0.752,1.516 1.361,2.313l1.33,1.742l12.43,-9.493c0.159,-0.122 0.374,-0.16 0.643,-0.114c0.27,0.047 0.592,0.197 0.967,0.452c0.375,0.254 0.799,0.633 1.273,1.136c0.474,0.503 1.007,1.141 1.598,1.915c0.609,0.797 1.093,1.491 1.454,2.08c0.36,0.59 0.614,1.099 0.761,1.528c0.147,0.428 0.202,0.773 0.168,1.034c-0.035,0.261 -0.133,0.452 -0.292,0.574l-30.836,23.55c-0.16,0.122 -0.37,0.165 -0.631,0.13c-0.261,-0.034 -0.573,-0.184 -0.936,-0.447c-0.363,-0.263 -0.782,-0.646 -1.256,-1.149c-0.475,-0.503 -1.016,-1.153 -1.624,-1.95z" stroke="null"/>
   <text id="svg_59" y="557.776389" x="100.209729" font-size="52.6113" font-family="Arial,Arial_MSFontService,sans-serif" fill-opacity="0" fill="#000000" stroke="null">к</text>
   <path id="svg_60" fill-rule="evenodd" fill="#FFFFFF" d="m90.49673,504.84139c0.339,0.631 0.769,1.205 1.291,1.721c0.521,0.517 1.169,0.981 1.944,1.394c0.775,0.413 1.686,0.777 2.733,1.093c1.048,0.315 2.279,0.58 3.695,0.794l11.129,-5.979c0.972,-2.246 1.593,-4.222 1.863,-5.928c0.27,-1.706 0.053,-3.215 -0.652,-4.527c-0.665,-1.237 -1.546,-2.121 -2.645,-2.652c-1.098,-0.532 -2.308,-0.801 -3.628,-0.807c-1.32,-0.006 -2.695,0.205 -4.124,0.631c-1.43,0.427 -2.788,0.986 -4.075,1.677c-1.438,0.773 -2.762,1.623 -3.971,2.549c-1.21,0.926 -2.193,1.926 -2.95,2.999c-0.756,1.073 -1.217,2.199 -1.381,3.376c-0.164,1.178 0.093,2.397 0.771,3.659zm-9.643,1.572c-1.329,-2.473 -1.975,-4.841 -1.939,-7.104c0.036,-2.264 0.604,-4.398 1.705,-6.404c1.101,-2.006 2.639,-3.865 4.614,-5.576c1.974,-1.712 4.236,-3.252 6.784,-4.622c3.003,-1.613 5.882,-2.746 8.638,-3.397c2.756,-0.651 5.311,-0.813 7.666,-0.485c2.355,0.328 4.482,1.169 6.38,2.523c1.898,1.354 3.484,3.217 4.759,5.589c0.529,0.984 0.919,1.937 1.17,2.859c0.252,0.922 0.388,1.872 0.411,2.852c0.022,0.98 -0.053,2.004 -0.227,3.073c-0.174,1.069 -0.434,2.217 -0.783,3.445l15.897,-8.542c0.253,-0.135 0.521,-0.182 0.804,-0.139c0.283,0.043 0.592,0.21 0.928,0.502c0.335,0.291 0.703,0.719 1.104,1.284c0.402,0.565 0.853,1.314 1.355,2.248c0.501,0.933 0.877,1.723 1.127,2.37c0.249,0.646 0.403,1.189 0.461,1.63c0.058,0.44 0.026,0.791 -0.094,1.05c-0.121,0.26 -0.307,0.458 -0.559,0.594l-47.162,25.341c-0.253,0.135 -0.508,0.191 -0.765,0.166c-0.257,-0.024 -0.533,-0.16 -0.829,-0.408c-0.295,-0.248 -0.614,-0.613 -0.955,-1.096c-0.341,-0.484 -0.721,-1.117 -1.142,-1.899c-0.406,-0.757 -0.717,-1.411 -0.932,-1.962c-0.215,-0.551 -0.344,-1.019 -0.387,-1.402c-0.044,-0.383 -0.005,-0.689 0.117,-0.916c0.121,-0.228 0.308,-0.41 0.561,-0.546l3.974,-2.135c-1.538,-0.442 -2.946,-0.929 -4.224,-1.462c-1.279,-0.533 -2.441,-1.152 -3.487,-1.858c-1.046,-0.706 -1.976,-1.515 -2.791,-2.427c-0.815,-0.912 -1.542,-1.96 -2.179,-3.146z" stroke="null"/>
   <text id="svg_61" y="519.799389" x="78.913729" font-size="47.0157" font-family="Arial,Arial_MSFontService,sans-serif" fill-opacity="0" fill="#000000" stroke="null">р</text>
   <path id="svg_62" fill-rule="evenodd" fill="#FFFFFF" d="m70.49873,460.24339c0.517,1.519 1.247,2.753 2.19,3.703c0.943,0.95 2.075,1.609 3.395,1.977c1.321,0.368 2.796,0.479 4.425,0.333c1.63,-0.146 3.408,-0.546 5.333,-1.201c1.79,-0.609 3.387,-1.318 4.791,-2.129c1.404,-0.81 2.548,-1.736 3.434,-2.779c0.886,-1.042 1.441,-2.237 1.663,-3.584c0.223,-1.346 0.049,-2.86 -0.523,-4.542c-0.526,-1.546 -1.261,-2.793 -2.204,-3.743c-0.943,-0.95 -2.068,-1.612 -3.375,-1.984c-1.307,-0.373 -2.773,-0.479 -4.398,-0.32c-1.625,0.159 -3.4,0.567 -5.326,1.222c-1.79,0.608 -3.389,1.311 -4.797,2.108c-1.408,0.796 -2.553,1.723 -3.435,2.779c-0.881,1.056 -1.442,2.253 -1.683,3.591c-0.241,1.337 -0.071,2.86 0.51,4.569zm-8.22,2.387c-1.107,-3.254 -1.625,-6.225 -1.555,-8.911c0.069,-2.686 0.693,-5.1 1.871,-7.24c1.179,-2.141 2.886,-4.015 5.123,-5.623c2.237,-1.608 4.969,-2.961 8.196,-4.058c3.092,-1.052 6.051,-1.604 8.877,-1.658c2.826,-0.053 5.442,0.434 7.849,1.461c2.407,1.027 4.536,2.617 6.388,4.771c1.852,2.154 3.346,4.899 4.48,8.235c1.098,3.227 1.605,6.186 1.522,8.877c-0.084,2.691 -0.712,5.113 -1.886,7.267c-1.173,2.155 -2.879,4.036 -5.115,5.644c-2.237,1.607 -4.956,2.956 -8.156,4.044c-3.091,1.052 -6.059,1.599 -8.904,1.644c-2.844,0.044 -5.463,-0.449 -7.856,-1.481c-2.393,-1.032 -4.513,-2.618 -6.361,-4.758c-1.847,-2.14 -3.338,-4.878 -4.473,-8.214z" stroke="null"/>
   <text id="svg_63" y="471.842389" x="60.716729" font-size="41.9494" font-family="Arial,Arial_MSFontService,sans-serif" fill-opacity="0" fill="#000000" stroke="null">о</text>
   <path id="svg_64" fill-rule="evenodd" fill="#FFFFFF" d="m60.00073,409.89039c0.159,0.961 0.427,1.831 0.803,2.611c0.376,0.779 0.868,1.518 1.477,2.216c0.609,0.697 1.316,1.371 2.121,2.022c0.805,0.651 1.729,1.325 2.774,2.023c0.344,-0.028 0.714,-0.074 1.109,-0.14c0.396,-0.065 0.806,-0.133 1.23,-0.203c2.656,-0.44 4.941,-0.978 6.853,-1.615c1.913,-0.636 3.462,-1.408 4.647,-2.316c1.186,-0.907 1.997,-1.971 2.434,-3.19c0.436,-1.219 0.521,-2.634 0.255,-4.245c-0.239,-1.441 -0.728,-2.682 -1.466,-3.721c-0.738,-1.039 -1.7,-1.852 -2.887,-2.44c-1.186,-0.587 -2.582,-0.951 -4.187,-1.092c-1.606,-0.141 -3.384,-0.049 -5.334,0.274c-1.583,0.262 -3.029,0.646 -4.339,1.154c-1.309,0.507 -2.407,1.153 -3.293,1.939c-0.887,0.786 -1.534,1.742 -1.942,2.87c-0.409,1.127 -0.494,2.411 -0.255,3.853zm-30.99,-10.656c-0.025,-0.33 0.096,-0.604 0.365,-0.823c0.269,-0.218 0.716,-0.409 1.343,-0.571c0.626,-0.161 1.505,-0.336 2.635,-0.523c0.791,-0.131 1.481,-0.216 2.07,-0.256c0.589,-0.039 1.109,-0.009 1.561,0.09c0.452,0.099 0.823,0.278 1.112,0.534c0.29,0.257 0.5,0.607 0.631,1.05l3.93,12.154c0.361,1.131 0.721,2.117 1.078,2.958c0.357,0.841 0.724,1.571 1.103,2.191c0.378,0.619 0.778,1.148 1.199,1.587c0.421,0.438 0.912,0.858 1.472,1.259c0.56,0.401 1.24,0.738 2.04,1.012c0.8,0.274 1.662,0.48 2.585,0.617c0.923,0.138 1.923,0.219 3.002,0.243c1.078,0.025 2.197,0.028 3.355,0.011c-0.917,-0.632 -1.787,-1.367 -2.608,-2.203c-0.821,-0.837 -1.553,-1.754 -2.197,-2.75c-0.644,-0.997 -1.2,-2.074 -1.668,-3.23c-0.467,-1.157 -0.811,-2.399 -1.031,-3.728c-0.458,-2.769 -0.419,-5.251 0.117,-7.445c0.537,-2.194 1.521,-4.099 2.952,-5.715c1.431,-1.617 3.271,-2.952 5.521,-4.007c2.25,-1.055 4.872,-1.831 7.868,-2.327c3.25,-0.538 6.298,-0.542 9.144,-0.012c2.847,0.531 5.365,1.536 7.556,3.017c2.191,1.481 4.009,3.387 5.455,5.717c1.445,2.33 2.421,5.021 2.926,8.074c0.562,3.391 0.52,6.381 -0.125,8.971c-0.646,2.589 -1.891,4.843 -3.737,6.76c-1.845,1.917 -4.312,3.502 -7.401,4.753c-3.088,1.252 -6.794,2.236 -11.118,2.952c-3.137,0.52 -6.117,0.847 -8.94,0.98c-2.824,0.134 -5.44,0.074 -7.848,-0.181c-2.409,-0.254 -4.559,-0.704 -6.452,-1.348c-1.893,-0.645 -3.444,-1.376 -4.653,-2.191c-1.209,-0.816 -2.209,-1.638 -3,-2.465c-0.79,-0.828 -1.526,-1.765 -2.208,-2.814c-0.682,-1.049 -1.321,-2.235 -1.918,-3.559c-0.596,-1.324 -1.158,-2.784 -1.683,-4.381l-4.183,-13.158c-0.141,-0.499 -0.224,-0.913 -0.25,-1.243z" stroke="null"/>
   <text id="svg_65" y="425.432389" x="29.007729" font-size="41.688" font-family="Arial,Arial_MSFontService,sans-serif" fill-opacity="0" fill="#000000" stroke="null">б</text>
   <path id="svg_66" fill-rule="evenodd" fill="#FFFFFF" d="m70.03973,361.62939c0.015,1.748 0.156,3.236 0.423,4.466c0.268,1.229 0.663,2.229 1.185,2.998c0.522,0.769 1.15,1.33 1.883,1.682c0.733,0.352 1.573,0.524 2.518,0.517c1.604,-0.014 2.86,-0.532 3.769,-1.557c0.908,-1.024 1.355,-2.438 1.34,-4.243c-0.012,-1.518 -0.41,-2.912 -1.194,-4.18c-0.784,-1.268 -1.926,-2.555 -3.426,-3.861l-6.531,0.053l0.033,4.125zm-24.473,2.391c-0.025,-3.008 0.248,-5.581 0.818,-7.72c0.57,-2.139 1.458,-3.901 2.664,-5.285c1.206,-1.385 2.766,-2.401 4.68,-3.046c1.914,-0.646 4.189,-0.98 6.824,-1.001l25.781,-0.21c0.401,-0.003 0.717,0.137 0.949,0.422c0.231,0.284 0.4,0.734 0.505,1.349c0.105,0.615 0.163,1.524 0.172,2.727c0.011,1.289 -0.032,2.228 -0.127,2.816c-0.096,0.588 -0.257,1.005 -0.484,1.25c-0.227,0.245 -0.541,0.37 -0.942,0.373l-3.051,0.025c1.703,1.562 3.035,3.348 3.997,5.36c0.962,2.012 1.452,4.249 1.472,6.713c0.017,2.034 -0.233,3.905 -0.749,5.614c-0.516,1.708 -1.292,3.19 -2.327,4.444c-1.035,1.255 -2.324,2.232 -3.865,2.932c-1.541,0.7 -3.343,1.059 -5.405,1.076c-2.235,0.018 -4.179,-0.403 -5.833,-1.263c-1.654,-0.861 -3.026,-2.153 -4.114,-3.877c-1.088,-1.724 -1.901,-3.874 -2.437,-6.447c-0.537,-2.574 -0.819,-5.566 -0.847,-8.974l-0.03,-3.738l-2.32,0.018c-1.203,0.01 -2.255,0.141 -3.155,0.391c-0.901,0.251 -1.649,0.658 -2.246,1.222c-0.597,0.563 -1.035,1.312 -1.314,2.245c-0.279,0.933 -0.413,2.087 -0.402,3.462c0.015,1.805 0.229,3.415 0.641,4.829c0.413,1.415 0.867,2.665 1.363,3.749c0.496,1.085 0.947,1.99 1.354,2.718c0.407,0.727 0.612,1.32 0.616,1.778c0.002,0.315 -0.095,0.595 -0.294,0.84c-0.199,0.245 -0.483,0.448 -0.854,0.609c-0.372,0.16 -0.829,0.286 -1.372,0.376c-0.544,0.091 -1.145,0.138 -1.804,0.144c-0.888,0.007 -1.59,-0.059 -2.107,-0.198c-0.517,-0.139 -0.985,-0.407 -1.403,-0.805c-0.419,-0.398 -0.883,-1.096 -1.392,-2.094c-0.51,-0.999 -0.985,-2.169 -1.425,-3.512c-0.441,-1.343 -0.804,-2.808 -1.089,-4.396c-0.285,-1.587 -0.434,-3.226 -0.448,-4.916z" stroke="null"/>
   <text id="svg_67" y="377.472389" x="45.564729" font-size="35.1015" font-family="Arial,Arial_MSFontService,sans-serif" fill-opacity="0" fill="#000000" stroke="null">а</text>
   <path id="svg_68" fill-rule="evenodd" fill="#FFFFFF" d="m47.16073,336.08639l3.796,-29.837c0.032,-0.256 0.14,-0.481 0.324,-0.674c0.183,-0.193 0.469,-0.337 0.856,-0.432c0.388,-0.095 0.891,-0.14 1.511,-0.133c0.62,0.007 1.371,0.066 2.252,0.178c0.937,0.119 1.714,0.254 2.331,0.405c0.616,0.15 1.099,0.32 1.451,0.509c0.351,0.189 0.584,0.4 0.699,0.631c0.115,0.231 0.156,0.474 0.124,0.73l-1.22,9.591l29.923,3.806c0.284,0.036 0.522,0.153 0.713,0.351c0.192,0.197 0.333,0.504 0.425,0.92c0.091,0.416 0.128,0.977 0.111,1.682c-0.018,0.705 -0.094,1.583 -0.227,2.635c-0.13,1.023 -0.274,1.871 -0.432,2.544c-0.158,0.673 -0.334,1.206 -0.529,1.6c-0.194,0.394 -0.408,0.656 -0.641,0.785c-0.233,0.129 -0.491,0.176 -0.776,0.139l-29.923,-3.806l-1.219,9.591c-0.037,0.284 -0.146,0.523 -0.33,0.716c-0.183,0.193 -0.469,0.337 -0.856,0.433c-0.388,0.095 -0.913,0.136 -1.575,0.124c-0.663,-0.012 -1.463,-0.078 -2.401,-0.197c-0.852,-0.108 -1.565,-0.242 -2.136,-0.402c-0.572,-0.159 -1.033,-0.333 -1.385,-0.522c-0.351,-0.189 -0.592,-0.393 -0.723,-0.612c-0.131,-0.219 -0.179,-0.47 -0.143,-0.755z" stroke="null"/>
   <text id="svg_69" y="334.380389" x="47.149729" font-size="33.5667" font-family="Arial,Arial_MSFontService,sans-serif" fill-opacity="0" fill="#000000" stroke="null">т</text>
   <path id="svg_70" fill-rule="evenodd" fill="#FFFFFF" d="m54.14573,289.59139c0.546,-1.959 1.069,-3.3 1.568,-4.023c0.5,-0.724 1.011,-1.012 1.536,-0.866l16.389,4.573c1.131,0.316 2.292,0.685 3.483,1.106c1.191,0.422 2.333,0.859 3.426,1.313c-0.919,-0.97 -1.827,-1.952 -2.724,-2.946c-0.898,-0.994 -1.749,-2.02 -2.555,-3.077l-13.458,-17.317c-0.242,-0.305 -0.432,-0.611 -0.569,-0.917c-0.138,-0.306 -0.217,-0.663 -0.237,-1.07c-0.02,-0.407 0.017,-0.887 0.112,-1.441c0.095,-0.553 0.262,-1.258 0.5,-2.113c0.27,-0.966 0.521,-1.758 0.753,-2.377c0.232,-0.62 0.469,-1.096 0.711,-1.43c0.242,-0.334 0.493,-0.539 0.752,-0.616c0.259,-0.076 0.527,-0.076 0.803,0.001l37.042,10.336c0.276,0.077 0.489,0.218 0.64,0.424c0.151,0.205 0.234,0.519 0.25,0.94c0.017,0.421 -0.038,0.963 -0.164,1.627c-0.125,0.664 -0.327,1.492 -0.604,2.485c-0.277,0.994 -0.538,1.821 -0.781,2.481c-0.244,0.661 -0.488,1.188 -0.731,1.581c-0.244,0.393 -0.487,0.652 -0.73,0.777c-0.243,0.126 -0.503,0.15 -0.779,0.073l-16.472,-4.596c-1.159,-0.323 -2.35,-0.693 -3.572,-1.108c-1.223,-0.416 -2.408,-0.858 -3.556,-1.327c0.974,0.986 1.912,2.021 2.814,3.105c0.902,1.084 1.793,2.181 2.674,3.289l13.451,17.181c0.235,0.333 0.424,0.638 0.57,0.917c0.145,0.278 0.232,0.607 0.26,0.987c0.028,0.38 -0.011,0.837 -0.116,1.373c-0.105,0.536 -0.273,1.218 -0.504,2.045c-0.277,0.994 -0.529,1.793 -0.758,2.398c-0.228,0.606 -0.456,1.077 -0.685,1.415c-0.228,0.338 -0.466,0.554 -0.716,0.648c-0.249,0.094 -0.512,0.103 -0.787,0.026l-37.043,-10.336c-0.248,-0.069 -0.454,-0.209 -0.619,-0.418c-0.165,-0.21 -0.26,-0.534 -0.286,-0.972c-0.027,-0.439 0.016,-0.992 0.128,-1.66c0.112,-0.667 0.307,-1.498 0.584,-2.491z" stroke="null"/>
   <text id="svg_71" y="299.621389" x="53.425729" font-size="47.1864" font-family="Arial,Arial_MSFontService,sans-serif" fill-opacity="0" fill="#000000" stroke="null">и</text>
   <path id="svg_72" fill-rule="evenodd" fill="#FFFFFF" d="m70.83473,238.54039c0.41,-0.884 0.792,-1.622 1.147,-2.215c0.354,-0.594 0.68,-1.058 0.978,-1.394c0.298,-0.335 0.574,-0.555 0.827,-0.658c0.253,-0.104 0.471,-0.113 0.653,-0.029l13.523,6.279l0.923,-1.988c0.374,-0.805 0.615,-1.578 0.721,-2.318c0.107,-0.74 0.057,-1.482 -0.151,-2.226c-0.207,-0.743 -0.582,-1.517 -1.125,-2.322c-0.542,-0.804 -1.275,-1.674 -2.2,-2.608l-6.125,-6.397c-0.224,-0.199 -0.391,-0.434 -0.501,-0.707c-0.111,-0.272 -0.137,-0.624 -0.079,-1.055c0.058,-0.431 0.215,-0.99 0.47,-1.676c0.256,-0.687 0.637,-1.576 1.144,-2.667c0.446,-0.962 0.837,-1.735 1.172,-2.322c0.336,-0.586 0.637,-1.031 0.904,-1.333c0.266,-0.303 0.501,-0.486 0.705,-0.549c0.203,-0.064 0.408,-0.048 0.616,0.049c0.26,0.121 0.548,0.317 0.863,0.59c0.316,0.273 0.725,0.684 1.228,1.233l5.341,5.843c1.071,1.161 1.927,2.261 2.566,3.3c0.639,1.039 1.109,2.015 1.411,2.929c0.302,0.914 0.484,1.78 0.547,2.599c0.062,0.818 0.058,1.574 -0.012,2.268l0.078,0.037c0.712,-0.649 1.426,-1.234 2.141,-1.754c0.716,-0.521 1.533,-0.955 2.452,-1.302c0.919,-0.347 1.975,-0.599 3.169,-0.755c1.194,-0.156 2.573,-0.219 4.138,-0.187l9.368,0.228c0.411,0.001 0.76,0.013 1.049,0.037c0.289,0.023 0.543,0.054 0.762,0.093c0.219,0.038 0.397,0.081 0.533,0.129c0.136,0.047 0.256,0.095 0.36,0.143c0.207,0.097 0.35,0.249 0.426,0.459c0.077,0.209 0.076,0.516 -0.002,0.922c-0.078,0.406 -0.239,0.94 -0.482,1.6c-0.244,0.661 -0.589,1.472 -1.035,2.434c-0.507,1.091 -0.949,1.975 -1.326,2.653c-0.378,0.677 -0.709,1.202 -0.993,1.576c-0.284,0.373 -0.559,0.609 -0.825,0.706c-0.266,0.098 -0.554,0.138 -0.862,0.121l-9.803,-0.619c-1.298,-0.129 -2.429,-0.141 -3.394,-0.036c-0.965,0.105 -1.801,0.325 -2.509,0.659c-0.708,0.335 -1.322,0.808 -1.843,1.419c-0.52,0.611 -0.992,1.371 -1.414,2.28l-0.923,1.988l14.187,6.586c0.182,0.084 0.315,0.257 0.399,0.517c0.085,0.26 0.101,0.616 0.05,1.066c-0.051,0.45 -0.188,1.002 -0.413,1.655c-0.225,0.654 -0.542,1.423 -0.952,2.306c-0.422,0.909 -0.811,1.661 -1.165,2.254c-0.354,0.594 -0.687,1.055 -0.998,1.384c-0.311,0.33 -0.59,0.54 -0.837,0.63c-0.247,0.091 -0.462,0.094 -0.644,0.009l-35.193,-16.338c-0.182,-0.085 -0.318,-0.251 -0.408,-0.498c-0.091,-0.247 -0.104,-0.593 -0.04,-1.037c0.064,-0.444 0.208,-0.993 0.433,-1.647c0.224,-0.653 0.548,-1.435 0.97,-2.344z" stroke="null"/>
   <text id="svg_73" y="254.447389" x="69.391729" font-size="48.1488" font-family="Arial,Arial_MSFontService,sans-serif" fill-opacity="0" fill="#000000" stroke="null">к</text>
   <path id="svg_74" fill-rule="evenodd" fill="#FFFFFF" d="m92.67873,195.94939c1.142,-1.683 2.065,-2.788 2.768,-3.314c0.704,-0.527 1.281,-0.637 1.731,-0.332l14.079,9.556c0.972,0.66 1.955,1.379 2.95,2.158c0.994,0.779 1.937,1.557 2.829,2.335c-0.562,-1.212 -1.11,-2.432 -1.644,-3.66c-0.534,-1.228 -1.015,-2.471 -1.441,-3.73l-7.241,-20.702c-0.132,-0.367 -0.215,-0.717 -0.248,-1.051c-0.033,-0.334 0.006,-0.697 0.116,-1.089c0.111,-0.393 0.299,-0.836 0.566,-1.33c0.266,-0.495 0.648,-1.109 1.147,-1.844c0.563,-0.83 1.053,-1.501 1.471,-2.014c0.417,-0.513 0.794,-0.889 1.129,-1.129c0.336,-0.239 0.639,-0.354 0.909,-0.344c0.27,0.01 0.524,0.096 0.761,0.257l31.82,21.597c0.237,0.16 0.394,0.362 0.471,0.605c0.078,0.243 0.057,0.567 -0.061,0.971c-0.119,0.404 -0.343,0.901 -0.674,1.49c-0.331,0.589 -0.786,1.311 -1.365,2.164c-0.579,0.853 -1.089,1.554 -1.531,2.103c-0.441,0.548 -0.84,0.97 -1.196,1.265c-0.356,0.295 -0.669,0.463 -0.94,0.505c-0.27,0.041 -0.524,-0.019 -0.761,-0.18l-14.15,-9.603c-0.996,-0.676 -2.007,-1.406 -3.033,-2.189c-1.026,-0.783 -2.009,-1.58 -2.948,-2.39c0.61,1.245 1.169,2.525 1.679,3.84c0.509,1.315 1.005,2.638 1.486,3.969l7.278,20.571c0.116,0.39 0.199,0.74 0.248,1.05c0.049,0.311 0.026,0.65 -0.068,1.019c-0.095,0.369 -0.277,0.79 -0.547,1.265c-0.27,0.474 -0.647,1.067 -1.129,1.778c-0.579,0.853 -1.074,1.53 -1.483,2.031c-0.409,0.502 -0.776,0.876 -1.1,1.124c-0.324,0.247 -0.619,0.376 -0.885,0.385c-0.266,0.01 -0.518,-0.065 -0.755,-0.226l-31.82,-21.597c-0.213,-0.145 -0.364,-0.343 -0.454,-0.594c-0.089,-0.251 -0.076,-0.588 0.038,-1.012c0.115,-0.425 0.332,-0.935 0.651,-1.532c0.319,-0.598 0.767,-1.323 1.347,-2.176z" stroke="null"/>
   <text id="svg_75" y="216.384389" x="90.584729" font-size="53.6287" font-family="Arial,Arial_MSFontService,sans-serif" fill-opacity="0" fill="#000000" stroke="null">и</text>
   <path id="svg_76" fill-opacity="0" fill-rule="evenodd" fill="#4472C4" stroke-miterlimit="8" stroke-width="14.6667" d="m8.27673,353.94439c0,-191.09 154.91,-345.9999 346,-345.9999c191.091,0 346,154.9099 346,345.9999c0,191.091 -154.909,346 -346,346c-191.09,0 -346,-154.909 -346,-346z" stroke="#FFFFFF"/>
  </g>
 </g>
</svg>