<!-- Generated by IcoMoon.io -->
<svg version="1.1" xmlns="http://www.w3.org/2000/svg" width="100" height="100" viewBox="0 0 32 32">
<title>logo-icon</title>
<path fill="#007fff" d="M13.691 5.066c-1.959 0.439-1.912 0.487 0.665 0.57 1.758 0.059 2.589 0.131 3.206 0.297 1.496 0.404 2.886 1.27 3.978 2.493 0.629 0.712 0.914 0.914 2.173 1.555 0.796 0.404 1.663 0.878 1.912 1.044l0.463 0.297-0.392-0.688c-1.484-2.647-3.848-4.498-6.888-5.412-1.057-0.32-3.99-0.404-5.118-0.154z"></path>
<path fill="#00bfbf" d="M12.472 6.953c-0.653 0.142-1.389 0.356-1.651 0.463-0.249 0.107-0.499 0.202-0.558 0.202-0.238 0-1.294 0.807-1.971 1.507-0.736 0.748-1.342 1.828-1.496 2.611-0.095 0.463-0.012 0.487 0.487 0.119 0.38-0.285 1.722-0.843 2.316-0.973 0.273-0.059 0.321-0.119 0.321-0.475 0-0.332 0.083-0.463 0.439-0.736 0.238-0.178 0.546-0.439 0.677-0.582 0.261-0.261 0.831-0.641 1.793-1.175 0.487-0.273 0.808-0.344 1.841-0.427 2.161-0.166 2.981-0.131 4.026 0.166 0.523 0.154 0.962 0.249 0.962 0.214-0.012-0.142-1.294-0.617-2.446-0.902-1.496-0.38-3.040-0.38-4.738-0.012z"></path>
<path fill="#0035bc" d="M14.558 7.63c-0.879 0.083-1.093 0.154-1.959 0.665-1.33 0.771-2.423 1.543-2.506 1.768-0.036 0.107-0.071 0.344-0.071 0.534s-0.071 0.368-0.143 0.404c-0.083 0.024-0.451 0.131-0.808 0.226-1.057 0.297-3.408 1.804-3.171 2.041 0.036 0.036 0.297-0.095 0.582-0.297s0.677-0.439 0.867-0.534c0.451-0.214 2.233-0.783 2.292-0.736 0.024 0.024-0.404 0.285-0.95 0.558-0.772 0.415-1.211 0.76-2.054 1.614-1.009 1.044-1.603 1.804-1.603 2.077 0 0.214 0.95-0.629 1.021-0.926 0.059-0.249 0.784-0.819 1.591-1.234 0.166-0.083 0.487-0.309 0.713-0.487s0.677-0.463 1.009-0.629l0.594-0.309 0.095 0.297c0.071 0.202 0.047 0.368-0.083 0.558-0.285 0.392-0.238 0.51 0.344 1.104 0.392 0.392 0.629 0.534 0.891 0.534 0.475 0 0.891-0.214 1.069-0.534 0.083-0.154 0.249-0.309 0.368-0.332 0.285-0.071 0.297-0.439 0.012-0.522-0.119-0.024-0.273-0.202-0.344-0.392-0.083-0.226-0.238-0.356-0.499-0.415-0.202-0.036-0.368-0.107-0.368-0.142s0.131-0.214 0.297-0.415c0.166-0.19 0.463-0.7 0.677-1.128 0.606-1.199 1.294-1.65 2.043-1.341 0.629 0.261 1.057 0.261 1.781 0.012 0.392-0.142 0.962-0.249 1.271-0.249 0.439 0 0.606-0.059 0.748-0.249 0.416-0.593 1.461-0.771 2.149-0.344 0.558 0.344 1.33 1.246 1.425 1.65 0.059 0.285 0.142 0.356 0.546 0.415 0.606 0.095 1.283 0.522 1.366 0.866 0.059 0.237 0.154 0.273 0.641 0.273 0.368 0 0.618 0.059 0.713 0.19 0.095 0.095 0.261 0.237 0.38 0.297 0.38 0.202 0.249-0.202-0.202-0.653-0.558-0.558-0.523-0.629 0.131-0.249 0.297 0.178 0.558 0.297 0.582 0.273s-0.012-0.178-0.095-0.332c-0.107-0.214-0.831-0.653-2.708-1.602-1.413-0.724-2.826-1.448-3.147-1.614-1.283-0.688-3.111-0.926-5.486-0.688z"></path>
<path fill="#d60202" d="M19.344 8.745c-0.059 0.024-0.249 0.071-0.427 0.107-0.202 0.047-0.511 0.356-0.962 0.985-0.368 0.51-1.045 1.353-1.508 1.875s-1.318 1.685-1.888 2.576c-0.57 0.902-1.093 1.638-1.164 1.638s-0.606-0.166-1.188-0.368c-0.582-0.202-1.413-0.498-1.853-0.653-0.439-0.142-0.926-0.356-1.104-0.475-0.463-0.297-0.463-0.142 0.012 0.404 0.297 0.344 0.736 0.641 1.544 1.033 0.618 0.285 1.259 0.57 1.413 0.605 0.439 0.107 0.463 0.249 0.095 0.451-0.606 0.309-1.318 1.187-1.853 2.267-0.297 0.582-0.57 1.199-0.618 1.365-0.119 0.415-0.285 0.582-0.736 0.771-0.38 0.166-0.392 0.19-0.392 0.855-0.012 0.38-0.083 0.89-0.166 1.128-0.344 0.973 0.523 0.297 1.045-0.807 0.439-0.938 1.746-2.409 3.848-4.368l0.748-0.688 0.736 0.261c0.914 0.332 2.328 1.021 2.601 1.27 0.321 0.285 0.261 0.629-0.131 0.76-0.368 0.131-0.546 0.439-0.665 1.139-0.047 0.249-0.131 0.629-0.202 0.831-0.142 0.475 0.036 0.771 0.748 1.246 0.618 0.415 0.76 0.415 1.389 0.012 0.724-0.475 0.867-0.843 0.772-2.089l-0.071-1.021 0.392-0.392c1.009-1.009 2.019-4.843 2.019-7.667 0-1.092-0.036-1.258-0.297-1.685-0.558-0.878-1.603-1.543-2.138-1.365zM19.035 14.086c-0.214 1.709-0.938 3.383-1.461 3.383-0.214 0-2.233-0.712-2.363-0.831-0.059-0.047 0.261-0.356 0.713-0.688 0.439-0.344 1.318-1.116 1.936-1.733 0.618-0.629 1.164-1.092 1.199-1.044 0.047 0.047 0.036 0.451-0.024 0.914z"></path>
<path fill="#00bfbf" d="M18.619 13.671c-0.226 0.226-0.238 0.297-0.107 0.665 0.071 0.214 0.166 0.427 0.202 0.475 0.095 0.083 0.249-0.914 0.19-1.187-0.036-0.178-0.071-0.166-0.285 0.047z"></path>
<path fill="#007fff" d="M12.575 10.894c-0.107 0.166-0.166 0.332-0.131 0.38 0.095 0.083 0.689-0.356 0.76-0.546 0.083-0.273-0.428-0.142-0.629 0.166z"></path>
<path fill="#00bfbf" d="M14.415 11.321c-0.713 0.249-1.556 0.985-1.793 1.543-0.154 0.38-0.154 0.392 0.19 0.487 0.166 0.059 0.38-0.047 0.701-0.332 0.249-0.226 0.546-0.415 0.677-0.415 0.119 0 0.249-0.059 0.285-0.119 0.036-0.071 0.297-0.119 0.57-0.119 0.451 0 0.57-0.071 1.069-0.57 0.309-0.309 0.558-0.605 0.558-0.653 0-0.178-1.627-0.059-2.256 0.178z"></path>
<path fill="#00bfbf" d="M23.144 11.558c0.582 1.887 0.689 3.691 0.309 5.139-0.226 0.89-0.926 2.635-1.081 2.73-0.047 0.036-0.261 0.356-0.475 0.724-0.404 0.712-2.126 2.587-2.613 2.837-0.166 0.083-0.451 0.297-0.641 0.463-0.202 0.154-0.546 0.392-0.772 0.51-0.238 0.119-0.582 0.32-0.784 0.463-0.511 0.356-1.769 0.878-2.102 0.878-0.154 0-0.332 0.047-0.404 0.107-0.166 0.154-1.152 0.368-2.126 0.451-0.499 0.036-0.926 0.107-0.95 0.154-0.059 0.107 1.176 0.593 1.484 0.593 0.131 0 0.534 0.083 0.914 0.178 0.986 0.261 3.361 0.237 4.133-0.036 0.914-0.32 2.624-1.448 3.658-2.409 1.081-0.997 1.663-1.816 2.411-3.347 0.487-0.997 0.558-1.282 0.784-2.908 0.249-1.78 0.249-1.816 0.036-2.955-0.321-1.745-0.677-2.801-0.986-2.944-0.142-0.059-0.309-0.261-0.392-0.439-0.166-0.415-0.534-0.582-0.404-0.19z"></path>
<path fill="#007fff" d="M26.172 11.938c0 0.154-0.059 0.202-0.214 0.166-0.178-0.047-0.202 0-0.166 0.344 0.059 0.475-0.024 0.487-0.618 0.036-0.534-0.404-0.974-0.487-0.843-0.154 0.226 0.605 0.677 2.314 0.784 3.050 0.249 1.59-0.19 4.237-0.962 5.78-1.128 2.22-2.423 3.62-4.536 4.878-0.463 0.273-0.784 0.522-0.724 0.534 0.071 0.024 0.534-0.119 1.045-0.309 3.539-1.365 6.14-4.451 6.888-8.19 0.285-1.365 0.19-3.846-0.178-5.104-0.285-1.009-0.463-1.401-0.475-1.033z"></path>
<path fill="#00bfbf" d="M21.861 13.161c-0.071 1.092 0.036 1.863 0.309 2.125 0.047 0.047 0.083-0.475 0.083-1.151 0-2.243-0.273-2.908-0.392-0.973z"></path>
<path fill="#00bfbf" d="M7.765 12.377c-0.558 0.226-1.188 0.724-1.188 0.961 0 0.19 0.095 0.154 0.546-0.249 0.309-0.273 0.618-0.487 0.701-0.487s0.214-0.083 0.297-0.178c0.166-0.202 0.071-0.214-0.356-0.047z"></path>
<path fill="#007fff" d="M9.57 12.864c-0.059 0.083-0.238 0.392-0.38 0.677-0.285 0.558-0.285 0.546 0.38 0.902 0.57 0.309 0.962 0.166 0.451-0.154-0.38-0.237-0.523-0.712-0.297-1.044 0.285-0.439 0.154-0.76-0.154-0.38z"></path>
<path fill="#00bfbf" d="M7.587 14.039c-0.261 0.119-0.606 0.309-0.76 0.439-0.273 0.214-0.273 0.249-0.154 1.116 0.143 1.092 0.891 2.718 1.651 3.561 0.534 0.605 0.677 0.57 0.285-0.071-0.131-0.202-0.285-0.582-0.356-0.843-0.059-0.261-0.178-0.688-0.238-0.95-0.154-0.605-0.166-1.697-0.012-2.659 0.071-0.415 0.119-0.771 0.095-0.783s-0.249 0.071-0.511 0.19z"></path>
<path fill="#00bfbf" d="M12.29 14.49c-0.143 0.19-0.249 0.475-0.249 0.629 0 0.226 0.071 0.178 0.356-0.285 0.202-0.32 0.356-0.593 0.356-0.629 0-0.166-0.249-0.012-0.463 0.285z"></path>
<path fill="#007fff" d="M8.727 15.392c-0.012 1.139 0.285 2.303 0.808 3.157 0.202 0.32 0.368 0.641 0.368 0.712 0 0.261 0.273 0.012 0.546-0.487 0.297-0.57 0.451-0.807 0.808-1.27 0.19-0.261 0.202-0.344 0.083-0.76-0.131-0.427-0.226-0.51-0.879-0.807-0.748-0.344-1.176-0.677-1.532-1.199-0.202-0.297-0.202-0.273-0.202 0.653z"></path>
<path fill="#007fff" d="M12.183 19.641l-0.748 0.748 0.629 0.285c0.487 0.226 0.879 0.309 1.746 0.332 0.629 0.024 1.223-0.012 1.366-0.071 0.131-0.071 0.523-0.237 0.855-0.38 0.38-0.154 0.665-0.368 0.748-0.546 0.071-0.154 0.261-0.344 0.427-0.404s0.297-0.19 0.297-0.297c0-0.226 0.024-0.237-0.855 0.178-0.629 0.297-0.843 0.344-1.342 0.285-0.321-0.047-0.713-0.154-0.855-0.237-0.143-0.095-0.332-0.166-0.404-0.166-0.083 0-0.238-0.071-0.332-0.166-0.107-0.083-0.332-0.19-0.499-0.226-0.249-0.059-0.416 0.036-1.033 0.665z"></path>
<path fill="none" stroke="#2033a4" stroke-linejoin="miter" stroke-linecap="butt" stroke-miterlimit="0" stroke-width="4.3268" d="M2.784 15.93c0-7.268 5.892-13.161 13.161-13.161s13.161 5.892 13.161 13.161c0 7.268-5.892 13.161-13.161 13.161s-13.161-5.892-13.161-13.161z"></path>
<path fill="#fff" d="M6.805 5.777c0.033-0.032 0.062-0.057 0.086-0.074s0.044-0.028 0.060-0.031c0.016-0.004 0.029-0.002 0.038 0.007s0.017 0.021 0.023 0.039l0.217 0.749 0.781 0.236c0.016 0.006 0.028 0.013 0.035 0.022s0.008 0.021 0.004 0.036c-0.004 0.015-0.015 0.034-0.034 0.057s-0.044 0.051-0.077 0.083c-0.027 0.026-0.049 0.047-0.067 0.063s-0.034 0.027-0.048 0.035-0.027 0.012-0.037 0.013c-0.011 0.001-0.022 0-0.035-0.004l-0.776-0.179c-0.031-0.008-0.056-0.022-0.075-0.042s-0.033-0.050-0.041-0.088l-0.159-0.733c-0.003-0.012-0.004-0.024-0.003-0.036s0.005-0.025 0.012-0.039c0.007-0.014 0.019-0.029 0.034-0.047s0.036-0.040 0.063-0.066zM6.217 6.292c0.033-0.032 0.062-0.057 0.086-0.074s0.044-0.027 0.061-0.029c0.016-0.003 0.030 0 0.040 0.009s0.018 0.022 0.023 0.040l0.237 0.783 0.795 0.26c0.018 0.006 0.032 0.014 0.041 0.024s0.012 0.023 0.008 0.039c-0.003 0.016-0.013 0.036-0.030 0.059s-0.042 0.052-0.076 0.085c-0.027 0.026-0.050 0.047-0.068 0.062s-0.035 0.026-0.050 0.034c-0.014 0.008-0.028 0.012-0.040 0.012s-0.025-0.001-0.038-0.005l-0.804-0.202c-0.032-0.009-0.057-0.023-0.077-0.044s-0.033-0.050-0.041-0.087l-0.175-0.769c-0.003-0.014-0.004-0.027-0.004-0.038s0.004-0.025 0.012-0.039c0.008-0.014 0.019-0.030 0.035-0.049s0.037-0.041 0.064-0.068z"></path>
<path fill="#fff" d="M8.386 4.285l0.137 1.195 0.583-0.397-0.718-0.8-0.002 0.001zM8.182 3.831c0.063-0.043 0.113-0.076 0.151-0.099s0.069-0.039 0.093-0.047c0.024-0.008 0.044-0.008 0.058-0.001s0.030 0.020 0.045 0.039l1.521 1.652c0.031 0.035 0.055 0.064 0.069 0.086s0.019 0.045 0.012 0.066c-0.007 0.021-0.026 0.044-0.057 0.069s-0.076 0.057-0.133 0.097c-0.041 0.028-0.074 0.049-0.101 0.065s-0.048 0.026-0.065 0.032c-0.017 0.005-0.031 0.005-0.042 0s-0.022-0.014-0.034-0.029l-0.339-0.378-0.778 0.53 0.062 0.553c0.003 0.020 0.003 0.038 0 0.055s-0.011 0.034-0.026 0.052c-0.014 0.018-0.036 0.038-0.065 0.061s-0.066 0.050-0.112 0.081c-0.049 0.033-0.088 0.058-0.118 0.073s-0.053 0.020-0.070 0.014c-0.017-0.006-0.030-0.023-0.039-0.050s-0.015-0.066-0.020-0.117l-0.246-2.522c-0.002-0.025-0.001-0.047 0.002-0.066s0.012-0.037 0.028-0.057c0.016-0.019 0.040-0.041 0.072-0.066s0.076-0.055 0.13-0.092z"></path>
<path fill="#fff" d="M10.55 4.128l0.161 0.709 0.329-0.147c0.084-0.037 0.149-0.080 0.196-0.13s0.080-0.101 0.101-0.155c0.020-0.054 0.028-0.11 0.024-0.167s-0.017-0.111-0.040-0.161c-0.034-0.075-0.088-0.123-0.164-0.141s-0.175-0.001-0.297 0.054l-0.31 0.138zM10.324 3.109l0.144 0.648 0.262-0.117c0.077-0.034 0.135-0.075 0.175-0.121s0.068-0.097 0.083-0.149c0.015-0.053 0.020-0.105 0.014-0.158s-0.018-0.1-0.037-0.143c-0.015-0.033-0.033-0.059-0.056-0.079s-0.050-0.033-0.081-0.040c-0.031-0.007-0.067-0.007-0.107-0.001s-0.088 0.022-0.143 0.047l-0.253 0.113zM9.928 2.868l0.55-0.245c0.121-0.054 0.231-0.091 0.328-0.112s0.184-0.025 0.261-0.013c0.077 0.012 0.144 0.040 0.201 0.084s0.103 0.107 0.139 0.187c0.031 0.070 0.051 0.14 0.059 0.21s0.005 0.14-0.009 0.208c-0.014 0.068-0.039 0.133-0.074 0.196s-0.079 0.121-0.134 0.173c0.056-0.014 0.111-0.018 0.165-0.014s0.105 0.018 0.153 0.040c0.047 0.023 0.091 0.055 0.13 0.098s0.073 0.095 0.101 0.158c0.025 0.057 0.044 0.119 0.055 0.186s0.014 0.138 0.007 0.21c-0.007 0.072-0.026 0.147-0.055 0.223s-0.073 0.151-0.131 0.223c-0.057 0.073-0.13 0.143-0.217 0.209s-0.196 0.129-0.326 0.187l-0.635 0.283c-0.048 0.022-0.089 0.025-0.121 0.011s-0.054-0.048-0.066-0.104l-0.489-2.174c-0.014-0.056-0.009-0.103 0.013-0.14s0.055-0.066 0.097-0.085z"></path>
<path fill="#fff" d="M13.047 2.291l-0.289 1.168 0.684-0.169-0.394-1-0.002 0zM13.014 1.794c0.074-0.018 0.133-0.032 0.177-0.040s0.078-0.013 0.104-0.012c0.025 0.001 0.044 0.008 0.055 0.019s0.021 0.030 0.029 0.053l0.849 2.079c0.017 0.044 0.029 0.079 0.035 0.105s0.002 0.048-0.012 0.066c-0.014 0.017-0.040 0.032-0.078 0.045s-0.091 0.027-0.159 0.044c-0.048 0.012-0.087 0.020-0.117 0.026s-0.055 0.008-0.072 0.007c-0.018-0.001-0.031-0.006-0.039-0.014s-0.016-0.021-0.021-0.039l-0.186-0.473-0.914 0.225-0.134 0.54c-0.004 0.020-0.011 0.037-0.019 0.052s-0.022 0.028-0.042 0.039c-0.020 0.011-0.047 0.023-0.082 0.034s-0.080 0.024-0.133 0.037c-0.058 0.014-0.103 0.023-0.136 0.027s-0.056 0-0.071-0.012c-0.014-0.012-0.020-0.032-0.019-0.060s0.009-0.067 0.022-0.117l0.649-2.45c0.007-0.024 0.016-0.045 0.025-0.061s0.025-0.031 0.046-0.043 0.052-0.025 0.091-0.036c0.039-0.012 0.091-0.025 0.154-0.041z"></path>
<path fill="#fff" d="M15.099 1.476c0.049-0.003 0.090-0.003 0.122-0.002s0.058 0.005 0.076 0.010c0.018 0.006 0.031 0.013 0.037 0.023s0.009 0.022 0.007 0.035l-0.135 0.93 0.938-0.050 0.133-0.93c0.002-0.013 0.008-0.025 0.017-0.036s0.025-0.020 0.045-0.028c0.020-0.008 0.047-0.014 0.080-0.019s0.075-0.009 0.124-0.011 0.090-0.003 0.122-0.002c0.032 0.002 0.058 0.005 0.076 0.010s0.031 0.013 0.037 0.023c0.006 0.010 0.009 0.022 0.007 0.035l-0.349 2.392c-0.002 0.013-0.008 0.025-0.017 0.036s-0.025 0.020-0.045 0.028c-0.020 0.008-0.047 0.014-0.080 0.019s-0.075 0.009-0.124 0.011c-0.049 0.003-0.090 0.003-0.122 0.002s-0.057-0.005-0.075-0.011c-0.018-0.006-0.030-0.013-0.037-0.023s-0.009-0.022-0.006-0.035l0.147-1.024-0.936 0.050-0.147 1.024c-0.002 0.013-0.008 0.025-0.018 0.036s-0.025 0.020-0.046 0.028c-0.021 0.008-0.048 0.014-0.081 0.019s-0.074 0.009-0.123 0.011c-0.050 0.003-0.091 0.003-0.123 0.002s-0.057-0.005-0.075-0.011c-0.018-0.005-0.031-0.013-0.038-0.023s-0.009-0.022-0.006-0.035l0.348-2.392c0.001-0.013 0.006-0.025 0.016-0.036s0.025-0.020 0.045-0.028c0.020-0.008 0.047-0.014 0.080-0.019s0.075-0.009 0.123-0.011z"></path>
<path fill="#fff" d="M17.781 1.52l1.185 0.117c0.019 0.002 0.031 0.011 0.036 0.028s0.006 0.037 0.004 0.062c-0.001 0.010-0.003 0.025-0.007 0.045s-0.009 0.041-0.016 0.065c-0.007 0.023-0.015 0.048-0.025 0.073s-0.020 0.049-0.032 0.070c-0.012 0.021-0.025 0.037-0.039 0.050s-0.030 0.018-0.046 0.016l-0.827-0.081-0.599 1.973c-0.004 0.013-0.011 0.023-0.023 0.032s-0.028 0.015-0.050 0.019c-0.022 0.004-0.050 0.006-0.083 0.006s-0.075-0.003-0.124-0.007c-0.050-0.005-0.091-0.011-0.122-0.017s-0.055-0.014-0.073-0.022c-0.017-0.008-0.029-0.017-0.034-0.028s-0.006-0.022-0-0.034l0.676-2.224c0.016-0.053 0.041-0.091 0.077-0.114s0.076-0.032 0.121-0.028z"></path>
<path fill="#fff" d="M19.999 2.409l-0.802 0.897 0.684 0.172 0.121-1.068-0.002-0zM20.203 1.955c0.074 0.019 0.132 0.034 0.175 0.047s0.075 0.026 0.097 0.038c0.022 0.013 0.035 0.027 0.039 0.043s0.004 0.036 0.001 0.060l-0.224 2.234c-0.005 0.047-0.011 0.083-0.018 0.109s-0.021 0.044-0.041 0.053c-0.020 0.009-0.050 0.010-0.090 0.003s-0.093-0.018-0.161-0.035c-0.048-0.012-0.086-0.023-0.116-0.032s-0.052-0.019-0.067-0.028c-0.015-0.009-0.024-0.019-0.028-0.031s-0.004-0.026-0.001-0.044l0.057-0.505-0.913-0.229-0.372 0.414c-0.013 0.015-0.027 0.028-0.041 0.037s-0.033 0.014-0.056 0.015-0.052-0.002-0.089-0.008c-0.036-0.006-0.081-0.016-0.135-0.030-0.058-0.014-0.102-0.028-0.133-0.039s-0.050-0.026-0.057-0.043-0.003-0.038 0.012-0.062c0.015-0.024 0.040-0.055 0.074-0.093l1.721-1.86c0.018-0.018 0.035-0.032 0.051-0.042s0.036-0.016 0.061-0.017c0.025-0.001 0.057 0.002 0.097 0.010s0.092 0.020 0.156 0.036z"></path>
<path fill="#fff" d="M22.15 3.082l-0.494 0.712 0.213 0.093c0.067 0.030 0.129 0.047 0.183 0.052s0.106 0.002 0.154-0.008c0.047-0.010 0.092-0.027 0.133-0.052s0.078-0.053 0.111-0.085c0.033-0.032 0.062-0.066 0.086-0.103s0.045-0.073 0.061-0.11c0.025-0.057 0.033-0.112 0.024-0.165s-0.038-0.101-0.088-0.142c-0.021-0.019-0.047-0.037-0.076-0.053s-0.063-0.033-0.101-0.050l-0.206-0.090zM22.082 2.623l0.502 0.22c0.062 0.027 0.116 0.053 0.162 0.078s0.092 0.053 0.135 0.083c0.066 0.046 0.121 0.096 0.166 0.151s0.077 0.113 0.098 0.175 0.029 0.127 0.024 0.196c-0.005 0.069-0.024 0.141-0.057 0.217-0.029 0.066-0.067 0.132-0.113 0.198s-0.101 0.126-0.165 0.181c-0.063 0.055-0.135 0.102-0.215 0.141s-0.168 0.066-0.266 0.080c-0.097 0.014-0.202 0.014-0.315-0.003s-0.237-0.054-0.373-0.114l-0.239-0.105-0.469 0.67c-0.008 0.011-0.018 0.019-0.032 0.024s-0.032 0.007-0.055 0.004c-0.023-0.003-0.050-0.010-0.082-0.020s-0.071-0.026-0.115-0.045c-0.044-0.019-0.079-0.037-0.107-0.052s-0.049-0.030-0.062-0.043c-0.014-0.013-0.022-0.025-0.024-0.037s0.002-0.023 0.011-0.034l1.318-1.886c0.035-0.051 0.076-0.083 0.124-0.095s0.098-0.007 0.149 0.016z"></path>
<path fill="#fff" d="M24.348 4.322c-0.16 0.128-0.302 0.239-0.428 0.334s-0.238 0.177-0.337 0.245-0.188 0.126-0.265 0.171c-0.078 0.045-0.148 0.083-0.211 0.113s-0.122 0.053-0.175 0.070-0.105 0.030-0.155 0.040l0.844 0.563 1.214-1.211-0.486-0.325zM24.367 3.841l1.065 0.711c0.039 0.026 0.059 0.055 0.061 0.088s-0.016 0.069-0.055 0.109l-1.393 1.392 0.177 0.118c0.028 0.019 0.041 0.039 0.041 0.061s-0.014 0.045-0.040 0.067l-0.647 0.648c-0.008 0.010-0.018 0.016-0.030 0.019s-0.027 0.002-0.046-0.004c-0.019-0.006-0.041-0.015-0.068-0.029s-0.058-0.033-0.094-0.057-0.065-0.045-0.086-0.063c-0.021-0.018-0.036-0.034-0.046-0.047s-0.015-0.026-0.014-0.036c0.001-0.010 0.006-0.020 0.015-0.030l0.426-0.426-1.387-0.926-0.428 0.425c-0.008 0.010-0.019 0.016-0.031 0.019s-0.028 0.001-0.047-0.005c-0.019-0.006-0.041-0.015-0.068-0.029s-0.057-0.033-0.093-0.056c-0.037-0.024-0.065-0.046-0.087-0.064s-0.037-0.034-0.046-0.047c-0.009-0.013-0.013-0.025-0.013-0.035s0.006-0.020 0.015-0.030l0.648-0.65c0.026-0.028 0.052-0.043 0.076-0.046s0.050 0.004 0.077 0.022l0.095 0.063c0.057-0.015 0.114-0.031 0.171-0.049s0.12-0.042 0.189-0.073c0.068-0.031 0.145-0.072 0.229-0.122s0.183-0.114 0.296-0.192c0.113-0.078 0.243-0.174 0.389-0.286s0.316-0.247 0.508-0.402c0.048-0.038 0.091-0.060 0.129-0.066s0.075 0.002 0.111 0.027z"></path>
<path fill="#fff" d="M25.746 5.772c0.027 0.026 0.048 0.048 0.064 0.066s0.028 0.033 0.035 0.047c0.007 0.014 0.012 0.026 0.013 0.037s0.001 0.023-0.001 0.036l-0.163 0.78c-0.006 0.030-0.019 0.055-0.039 0.074s-0.049 0.034-0.087 0.044l-0.728 0.178c-0.014 0.003-0.026 0.004-0.038 0.004s-0.024-0.004-0.038-0.012-0.030-0.019-0.048-0.034c-0.018-0.015-0.040-0.035-0.067-0.061-0.034-0.033-0.060-0.061-0.078-0.084s-0.029-0.042-0.033-0.058c-0.004-0.016-0.002-0.029 0.006-0.038s0.022-0.017 0.040-0.023l0.743-0.235 0.217-0.786c0.004-0.017 0.011-0.030 0.019-0.037s0.020-0.008 0.036-0.005c0.015 0.004 0.034 0.015 0.058 0.032s0.052 0.043 0.087 0.076zM26.346 6.293c0.027 0.026 0.048 0.048 0.063 0.067s0.027 0.035 0.034 0.048c0.007 0.014 0.012 0.027 0.012 0.039s-0.001 0.025-0.004 0.038l-0.184 0.81c-0.007 0.031-0.020 0.057-0.041 0.077s-0.050 0.035-0.088 0.044l-0.763 0.192c-0.014 0.003-0.026 0.004-0.038 0.005s-0.025-0.004-0.039-0.011-0.031-0.019-0.050-0.034c-0.019-0.015-0.042-0.035-0.069-0.061-0.034-0.033-0.060-0.062-0.077-0.085s-0.027-0.043-0.031-0.060c-0.003-0.017-0.001-0.030 0.008-0.040s0.021-0.018 0.039-0.024l0.777-0.256 0.241-0.801c0.005-0.018 0.013-0.032 0.023-0.041s0.023-0.012 0.039-0.009c0.016 0.003 0.036 0.013 0.060 0.029s0.053 0.041 0.089 0.076z"></path>
<path fill="#fff" d="M29.497 9.445c0.033 0.061 0.060 0.123 0.080 0.186s0.035 0.122 0.045 0.179c0.010 0.057 0.014 0.111 0.013 0.161s-0.005 0.087-0.012 0.111c-0.007 0.024-0.014 0.041-0.021 0.052s-0.018 0.023-0.032 0.035-0.031 0.025-0.052 0.038c-0.021 0.013-0.047 0.029-0.079 0.046-0.034 0.018-0.064 0.033-0.089 0.043s-0.047 0.017-0.064 0.019c-0.018 0.002-0.032 0.001-0.043-0.003s-0.019-0.012-0.025-0.022c-0.009-0.017-0.011-0.044-0.005-0.081s0.010-0.083 0.012-0.137c0.002-0.055-0.002-0.116-0.014-0.184s-0.038-0.142-0.081-0.221c-0.047-0.087-0.107-0.156-0.18-0.205s-0.156-0.080-0.248-0.093c-0.093-0.012-0.193-0.006-0.3 0.020s-0.221 0.071-0.339 0.134c-0.13 0.070-0.235 0.144-0.315 0.222s-0.138 0.158-0.173 0.241c-0.035 0.083-0.048 0.167-0.041 0.253s0.035 0.173 0.082 0.26c0.043 0.079 0.089 0.143 0.139 0.191s0.098 0.086 0.143 0.116c0.045 0.029 0.084 0.052 0.117 0.069s0.053 0.033 0.061 0.047c0.006 0.011 0.009 0.022 0.008 0.031s-0.007 0.020-0.018 0.032c-0.011 0.012-0.028 0.026-0.052 0.041s-0.055 0.034-0.096 0.056c-0.028 0.015-0.053 0.027-0.074 0.037s-0.039 0.016-0.055 0.020c-0.016 0.004-0.031 0.006-0.044 0.006s-0.030-0.003-0.050-0.008c-0.020-0.005-0.050-0.021-0.089-0.045s-0.083-0.058-0.13-0.1c-0.047-0.042-0.094-0.092-0.142-0.152s-0.093-0.128-0.135-0.205c-0.082-0.151-0.132-0.3-0.151-0.447s-0.005-0.288 0.041-0.423c0.047-0.135 0.127-0.263 0.241-0.383s0.263-0.23 0.447-0.329c0.187-0.101 0.367-0.166 0.54-0.194s0.332-0.024 0.48 0.012c0.147 0.036 0.28 0.104 0.399 0.202s0.219 0.223 0.301 0.374z"></path>
<path fill="#fff" d="M29.471 11.010l0.442 1.286c0.015 0.043 0.013 0.079-0.005 0.108s-0.051 0.052-0.1 0.069l-1.548 0.532c-0.012 0.004-0.024 0.004-0.036 0s-0.024-0.014-0.036-0.030c-0.012-0.016-0.025-0.037-0.038-0.066s-0.027-0.065-0.043-0.11c-0.015-0.044-0.026-0.081-0.034-0.112s-0.011-0.057-0.011-0.077 0.003-0.036 0.010-0.045c0.007-0.010 0.016-0.017 0.029-0.021l1.315-0.452-0.212-0.617-1.315 0.452c-0.012 0.004-0.024 0.004-0.036-0.001s-0.024-0.015-0.036-0.031c-0.012-0.016-0.025-0.038-0.038-0.066s-0.027-0.065-0.043-0.11c-0.016-0.045-0.027-0.083-0.034-0.113s-0.011-0.055-0.011-0.075c0-0.020 0.003-0.035 0.010-0.045s0.016-0.017 0.029-0.021l1.548-0.532c0.049-0.017 0.089-0.019 0.122-0.007s0.056 0.040 0.071 0.084z"></path>
<path fill="#fff" d="M29.93 13.968c-0.012-0.071-0.036-0.131-0.071-0.181s-0.081-0.087-0.137-0.112c-0.056-0.026-0.121-0.041-0.194-0.047s-0.156-0-0.246 0.015c-0.084 0.014-0.16 0.034-0.229 0.060s-0.126 0.059-0.173 0.099c-0.047 0.040-0.080 0.089-0.1 0.147s-0.023 0.127-0.009 0.206c0.012 0.073 0.036 0.133 0.071 0.182s0.080 0.087 0.136 0.113 0.12 0.041 0.193 0.046c0.073 0.005 0.155-0.001 0.246-0.016 0.084-0.014 0.16-0.034 0.229-0.059s0.126-0.058 0.173-0.099c0.047-0.041 0.080-0.090 0.101-0.148s0.024-0.127 0.010-0.207zM30.313 13.921c0.026 0.153 0.027 0.289 0.005 0.408s-0.068 0.222-0.135 0.309c-0.068 0.087-0.157 0.158-0.268 0.213s-0.242 0.096-0.394 0.121c-0.145 0.024-0.281 0.028-0.407 0.010s-0.239-0.059-0.339-0.122c-0.1-0.063-0.183-0.149-0.25-0.258s-0.113-0.242-0.14-0.399c-0.026-0.151-0.027-0.287-0.004-0.406s0.069-0.222 0.136-0.31c0.068-0.087 0.157-0.159 0.268-0.214s0.242-0.096 0.392-0.121c0.145-0.024 0.281-0.027 0.408-0.009s0.24 0.059 0.339 0.123c0.099 0.063 0.182 0.149 0.249 0.258s0.113 0.241 0.14 0.398z"></path>
<path fill="#fff" d="M30.093 16.309c-0-0.032-0.005-0.064-0.015-0.096s-0.026-0.064-0.048-0.097c-0.022-0.033-0.051-0.067-0.086-0.101s-0.078-0.071-0.13-0.11l-0.569 0.002c-0.086 0.069-0.153 0.134-0.2 0.196s-0.070 0.127-0.070 0.194c0 0.063 0.017 0.117 0.049 0.162s0.075 0.081 0.127 0.109c0.052 0.028 0.112 0.049 0.177 0.062s0.132 0.020 0.198 0.020c0.074-0 0.144-0.006 0.212-0.017s0.128-0.030 0.181-0.057c0.053-0.027 0.095-0.062 0.126-0.105s0.047-0.097 0.047-0.162zM30.51 16.451c0 0.127-0.024 0.234-0.073 0.324s-0.117 0.162-0.204 0.219c-0.086 0.056-0.187 0.098-0.302 0.124s-0.237 0.040-0.368 0.040c-0.154 0-0.292-0.015-0.416-0.048s-0.228-0.080-0.315-0.143-0.153-0.142-0.2-0.236c-0.047-0.094-0.070-0.202-0.071-0.323-0-0.050 0.005-0.096 0.014-0.139s0.024-0.083 0.044-0.122c0.020-0.039 0.045-0.079 0.074-0.117s0.064-0.079 0.104-0.12l-0.813 0.003c-0.013 0-0.025-0.004-0.035-0.011s-0.019-0.021-0.026-0.040c-0.007-0.019-0.013-0.043-0.017-0.075s-0.006-0.070-0.006-0.118c-0-0.048 0.002-0.087 0.005-0.118s0.009-0.056 0.016-0.075 0.016-0.032 0.026-0.040c0.010-0.008 0.022-0.012 0.035-0.012l2.413-0.008c0.013-0 0.024 0.003 0.034 0.010s0.018 0.018 0.024 0.034c0.006 0.016 0.011 0.037 0.015 0.064s0.005 0.060 0.005 0.1c0 0.039-0.001 0.071-0.005 0.098s-0.008 0.048-0.014 0.064-0.014 0.027-0.024 0.034c-0.010 0.007-0.021 0.010-0.034 0.010l-0.203 0.001c0.052 0.050 0.098 0.099 0.137 0.148s0.073 0.098 0.099 0.148c0.027 0.050 0.046 0.102 0.060 0.156s0.020 0.111 0.020 0.171z"></path>
<path fill="#fff" d="M30.423 17.569l-0.187 1.343c-0.002 0.012-0.007 0.022-0.015 0.030s-0.021 0.015-0.039 0.019c-0.018 0.004-0.040 0.006-0.068 0.005s-0.062-0.004-0.101-0.009c-0.042-0.006-0.077-0.012-0.105-0.019s-0.049-0.015-0.065-0.024-0.026-0.018-0.031-0.029c-0.005-0.011-0.007-0.021-0.005-0.033l0.060-0.432-1.347-0.187c-0.013-0.002-0.023-0.007-0.032-0.016s-0.015-0.023-0.019-0.042c-0.004-0.019-0.005-0.044-0.004-0.076s0.005-0.071 0.012-0.119c0.006-0.046 0.013-0.084 0.021-0.114s0.016-0.054 0.025-0.072 0.019-0.029 0.029-0.035c0.011-0.006 0.022-0.008 0.035-0.006l1.347 0.187 0.060-0.432c0.002-0.013 0.007-0.023 0.015-0.032s0.021-0.015 0.039-0.019c0.018-0.004 0.041-0.006 0.071-0.005s0.066 0.004 0.108 0.010c0.038 0.005 0.070 0.012 0.096 0.019s0.046 0.016 0.062 0.024c0.016 0.009 0.026 0.018 0.032 0.028s0.008 0.021 0.006 0.034z"></path>
<path fill="#fff" d="M30.084 19.66c-0.026 0.088-0.050 0.148-0.073 0.18s-0.046 0.045-0.070 0.038l-0.736-0.215c-0.051-0.015-0.103-0.032-0.156-0.052s-0.105-0.040-0.154-0.061c0.041 0.044 0.081 0.089 0.121 0.134s0.078 0.092 0.113 0.14l0.597 0.787c0.011 0.014 0.019 0.028 0.025 0.042s0.009 0.030 0.010 0.048c0.001 0.018-0.001 0.040-0.006 0.065s-0.012 0.057-0.024 0.095c-0.013 0.043-0.024 0.079-0.035 0.107s-0.022 0.049-0.033 0.064-0.023 0.024-0.034 0.027c-0.012 0.003-0.024 0.003-0.036-0l-1.664-0.485c-0.012-0.004-0.022-0.010-0.029-0.019s-0.010-0.024-0.011-0.043c-0-0.019 0.002-0.043 0.008-0.073s0.016-0.067 0.029-0.112c0.013-0.045 0.025-0.082 0.037-0.111s0.023-0.053 0.034-0.071c0.011-0.018 0.022-0.029 0.033-0.035s0.023-0.006 0.035-0.003l0.74 0.216c0.052 0.015 0.105 0.032 0.16 0.052s0.108 0.040 0.16 0.062c-0.043-0.045-0.085-0.092-0.125-0.141s-0.080-0.099-0.119-0.15l-0.597-0.781c-0.010-0.015-0.019-0.029-0.025-0.042s-0.010-0.027-0.011-0.045c-0.001-0.017 0.001-0.038 0.006-0.062s0.013-0.055 0.024-0.092c0.013-0.045 0.025-0.081 0.035-0.108s0.021-0.048 0.032-0.063 0.021-0.025 0.033-0.029c0.011-0.004 0.023-0.004 0.035-0.001l1.664 0.485c0.011 0.003 0.020 0.010 0.028 0.019s0.011 0.024 0.012 0.044-0.001 0.045-0.007 0.075c-0.005 0.030-0.015 0.067-0.028 0.112z"></path>
<path fill="#fff" d="M28.268 21.687l-0.447-0.214c-0.011 0.018-0.023 0.036-0.034 0.056s-0.023 0.040-0.034 0.060c-0.011 0.020-0.022 0.041-0.032 0.061s-0.019 0.038-0.027 0.055c-0.030 0.062-0.049 0.117-0.059 0.167s-0.011 0.093-0.004 0.131c0.008 0.038 0.023 0.070 0.047 0.098s0.053 0.049 0.090 0.066c0.037 0.018 0.073 0.027 0.107 0.029s0.067-0.008 0.099-0.028c0.032-0.020 0.064-0.050 0.095-0.092s0.061-0.095 0.092-0.159l0.109-0.229zM28.822 22.231c0.021-0.044 0.040-0.086 0.056-0.127s0.030-0.076 0.040-0.106l-0.393-0.188-0.113 0.236c-0.047 0.099-0.066 0.183-0.055 0.252s0.050 0.119 0.117 0.152c0.031 0.015 0.062 0.023 0.092 0.023s0.059-0.007 0.088-0.024c0.029-0.016 0.057-0.043 0.085-0.079s0.056-0.083 0.083-0.14zM29.12 22.378c-0.060 0.125-0.12 0.228-0.18 0.31s-0.123 0.144-0.186 0.186c-0.064 0.042-0.128 0.065-0.194 0.068s-0.133-0.011-0.203-0.045c-0.094-0.045-0.161-0.108-0.2-0.189s-0.046-0.174-0.023-0.279c-0.077 0.108-0.166 0.176-0.265 0.206s-0.204 0.018-0.313-0.034c-0.090-0.043-0.16-0.097-0.212-0.163s-0.084-0.143-0.096-0.232c-0.013-0.089-0.006-0.19 0.019-0.302s0.071-0.237 0.136-0.375c0.022-0.045 0.042-0.087 0.061-0.126s0.038-0.076 0.057-0.112c0.019-0.036 0.038-0.072 0.058-0.108s0.042-0.073 0.067-0.113c0.031-0.052 0.066-0.084 0.105-0.094s0.087-0.002 0.142 0.025l1.343 0.643c0.054 0.026 0.089 0.056 0.106 0.091s0.017 0.077 0.001 0.125c-0.012 0.030-0.025 0.065-0.041 0.104s-0.033 0.081-0.053 0.126c-0.019 0.045-0.040 0.092-0.062 0.14s-0.044 0.097-0.068 0.146z"></path>
<path fill="#fff" d="M28.295 23.863c-0.027 0.039-0.051 0.071-0.071 0.094s-0.038 0.041-0.054 0.053-0.030 0.018-0.043 0.019c-0.012 0.001-0.024-0.002-0.034-0.010l-0.532-0.369-0.398 0.575 0.532 0.369c0.011 0.007 0.018 0.017 0.021 0.029s0.003 0.027-0.002 0.046c-0.005 0.019-0.015 0.042-0.030 0.070s-0.037 0.061-0.064 0.101c-0.026 0.038-0.050 0.069-0.071 0.094s-0.039 0.042-0.054 0.053c-0.016 0.011-0.030 0.017-0.042 0.018s-0.024-0.002-0.034-0.010l-1.42-0.984c-0.011-0.007-0.018-0.017-0.021-0.029s-0.003-0.027 0.002-0.046c0.005-0.019 0.015-0.042 0.031-0.070s0.036-0.061 0.063-0.099c0.027-0.039 0.051-0.071 0.072-0.095s0.039-0.042 0.054-0.053 0.030-0.017 0.042-0.018c0.012-0.001 0.024 0.002 0.034 0.010l0.559 0.387 0.398-0.575-0.559-0.387c-0.011-0.007-0.018-0.017-0.021-0.029s-0.003-0.027 0.003-0.046 0.015-0.042 0.030-0.070c0.015-0.027 0.036-0.061 0.063-0.1s0.051-0.071 0.071-0.094c0.020-0.024 0.038-0.041 0.054-0.053s0.030-0.018 0.043-0.019c0.012-0.001 0.024 0.002 0.034 0.010l1.42 0.984c0.011 0.007 0.018 0.017 0.021 0.029s0.003 0.027-0.003 0.046-0.016 0.042-0.030 0.070c-0.015 0.027-0.036 0.061-0.063 0.1z"></path>
<path fill="#fff" d="M25.7 25.416c0.055-0.057 0.097-0.109 0.127-0.158s0.049-0.093 0.056-0.134c0.007-0.041 0.005-0.079-0.008-0.114s-0.034-0.066-0.065-0.096c-0.052-0.050-0.109-0.073-0.171-0.068s-0.12 0.036-0.177 0.095c-0.047 0.049-0.078 0.107-0.093 0.173s-0.018 0.143-0.011 0.232l0.213 0.204 0.129-0.134zM26.566 26.109c-0.094 0.098-0.184 0.172-0.269 0.224s-0.17 0.080-0.252 0.087c-0.083 0.007-0.165-0.009-0.247-0.049s-0.166-0.1-0.252-0.182l-0.839-0.804c-0.013-0.013-0.019-0.027-0.017-0.044s0.010-0.036 0.026-0.059 0.043-0.054 0.080-0.093c0.040-0.042 0.071-0.071 0.093-0.087s0.040-0.024 0.055-0.025c0.015-0.001 0.029 0.005 0.042 0.018l0.099 0.095c-0.006-0.104 0.007-0.204 0.039-0.299s0.087-0.183 0.163-0.263c0.063-0.066 0.13-0.119 0.201-0.158s0.142-0.062 0.215-0.070c0.073-0.008 0.145 0.001 0.217 0.027s0.141 0.071 0.208 0.135c0.073 0.070 0.122 0.144 0.149 0.224s0.030 0.165 0.011 0.255c-0.019 0.090-0.060 0.185-0.124 0.285s-0.149 0.205-0.255 0.316l-0.117 0.122 0.076 0.072c0.039 0.038 0.077 0.066 0.114 0.087s0.074 0.031 0.111 0.031c0.037 0.001 0.075-0.010 0.113-0.031s0.079-0.054 0.122-0.099c0.056-0.059 0.1-0.117 0.131-0.176s0.056-0.113 0.074-0.164c0.018-0.051 0.032-0.094 0.042-0.13s0.022-0.062 0.036-0.077c0.010-0.010 0.022-0.016 0.036-0.018s0.030 0.001 0.047 0.007c0.017 0.006 0.036 0.017 0.056 0.031s0.041 0.032 0.063 0.052c0.029 0.028 0.049 0.052 0.062 0.073s0.019 0.044 0.020 0.070c0.001 0.026-0.006 0.063-0.021 0.111s-0.036 0.101-0.064 0.158c-0.028 0.057-0.062 0.116-0.103 0.176s-0.087 0.118-0.14 0.173z"></path>
<path fill="#fff" d="M24.686 27.317c0.054-0.042 0.096-0.082 0.124-0.12s0.047-0.075 0.055-0.111c0.008-0.036 0.008-0.070-0.002-0.103s-0.026-0.064-0.049-0.094c-0.024-0.032-0.052-0.056-0.082-0.073s-0.063-0.025-0.099-0.024c-0.036 0.001-0.075 0.010-0.117 0.029s-0.093 0.050-0.152 0.096l-0.166 0.127 0.302 0.393c0.033-0.017 0.065-0.036 0.097-0.058s0.062-0.043 0.088-0.063zM24.872 27.594c-0.032 0.024-0.067 0.051-0.106 0.079s-0.079 0.057-0.12 0.085c-0.041 0.028-0.082 0.056-0.122 0.083s-0.077 0.050-0.109 0.070c-0.035 0.024-0.069 0.032-0.102 0.023s-0.062-0.030-0.088-0.063l-1-1.303c-0.009-0.011-0.014-0.023-0.015-0.034s0.003-0.025 0.013-0.040c0.010-0.016 0.027-0.034 0.050-0.056s0.056-0.048 0.097-0.079c0.037-0.028 0.068-0.051 0.095-0.068s0.049-0.028 0.067-0.035c0.019-0.006 0.034-0.008 0.045-0.004s0.022 0.011 0.030 0.022l0.397 0.518 0.101-0.078c0.047-0.036 0.081-0.069 0.102-0.099s0.035-0.064 0.042-0.103c0.007-0.039 0.007-0.083 0-0.132s-0.021-0.107-0.041-0.175l-0.090-0.305c-0.006-0.020-0.008-0.038-0.007-0.055s0.008-0.034 0.021-0.052c0.013-0.018 0.032-0.038 0.057-0.061s0.058-0.049 0.099-0.081c0.036-0.027 0.066-0.050 0.092-0.068s0.047-0.031 0.065-0.040c0.018-0.009 0.032-0.013 0.044-0.012s0.021 0.007 0.030 0.018 0.017 0.030 0.026 0.057c0.008 0.027 0.020 0.072 0.035 0.136l0.072 0.289c0.021 0.085 0.028 0.164 0.022 0.238s-0.028 0.141-0.063 0.201c0.114-0.051 0.222-0.068 0.324-0.050s0.192 0.076 0.267 0.175c0.056 0.073 0.091 0.149 0.106 0.23s0.009 0.163-0.018 0.247c-0.027 0.084-0.076 0.17-0.145 0.258s-0.161 0.175-0.275 0.262z"></path>
<path fill="#fff" d="M20.817 29.767c-0.046 0.012-0.084 0.020-0.115 0.024s-0.055 0.006-0.073 0.004c-0.018-0.002-0.032-0.007-0.042-0.014s-0.016-0.018-0.019-0.030l-0.345-1.343-0.531 0.136 0.345 1.343c0.003 0.013 0.003 0.024-0.001 0.035s-0.013 0.022-0.027 0.032c-0.014 0.010-0.035 0.021-0.064 0.031s-0.065 0.022-0.11 0.033c-0.045 0.012-0.083 0.020-0.115 0.024s-0.056 0.006-0.075 0.004c-0.018-0.002-0.033-0.007-0.043-0.014s-0.017-0.017-0.020-0.030l-0.345-1.343-0.531 0.136 0.345 1.343c0.003 0.013 0.003 0.024-0.002 0.035s-0.015 0.022-0.030 0.033c-0.016 0.011-0.038 0.021-0.067 0.032s-0.065 0.022-0.11 0.033c-0.046 0.012-0.085 0.020-0.117 0.025s-0.057 0.006-0.077 0.005-0.035-0.006-0.045-0.013c-0.011-0.007-0.017-0.017-0.021-0.030l-0.408-1.585c-0.013-0.050-0.012-0.091 0.003-0.122s0.044-0.052 0.090-0.064l2.191-0.563c0.045-0.012 0.081-0.007 0.109 0.013s0.048 0.055 0.061 0.105l0.408 1.585c0.003 0.013 0.002 0.024-0.003 0.036s-0.016 0.023-0.033 0.034c-0.017 0.011-0.041 0.022-0.070 0.033s-0.068 0.022-0.114 0.034z"></path>
<path fill="#fff" d="M17.622 30.415c-0.044 0.003-0.081 0.003-0.112 0.002s-0.057-0.004-0.076-0.009-0.034-0.011-0.044-0.019c-0.009-0.008-0.015-0.016-0.015-0.025l-0.042-0.671-0.099 0.006c-0.040 0.002-0.076 0.010-0.107 0.021s-0.060 0.030-0.085 0.054-0.048 0.056-0.068 0.094c-0.020 0.039-0.039 0.087-0.056 0.143l-0.122 0.38c-0.003 0.013-0.009 0.025-0.017 0.035s-0.022 0.019-0.040 0.026c-0.018 0.007-0.044 0.013-0.077 0.017s-0.076 0.009-0.13 0.012c-0.048 0.003-0.087 0.004-0.117 0.003s-0.055-0.003-0.072-0.007c-0.018-0.004-0.030-0.009-0.037-0.016s-0.011-0.015-0.011-0.026c-0.001-0.013 0.001-0.029 0.005-0.047s0.012-0.043 0.023-0.075l0.117-0.337c0.023-0.067 0.048-0.125 0.076-0.173s0.056-0.087 0.086-0.119c0.030-0.032 0.060-0.057 0.091-0.078s0.061-0.036 0.090-0.048l-0-0.004c-0.041-0.014-0.079-0.030-0.115-0.047s-0.071-0.040-0.104-0.069c-0.034-0.029-0.066-0.065-0.098-0.109s-0.064-0.097-0.096-0.16l-0.192-0.376c-0.009-0.016-0.016-0.030-0.021-0.042s-0.009-0.023-0.013-0.032c-0.003-0.009-0.005-0.017-0.006-0.024s-0.002-0.012-0.002-0.017 0.002-0.019 0.009-0.027c0.007-0.008 0.019-0.014 0.037-0.020s0.042-0.011 0.074-0.015c0.031-0.005 0.071-0.008 0.119-0.011 0.054-0.003 0.099-0.005 0.134-0.005s0.063 0.002 0.084 0.005c0.021 0.003 0.036 0.009 0.046 0.018s0.017 0.019 0.023 0.032l0.186 0.402c0.023 0.054 0.047 0.099 0.072 0.135s0.052 0.064 0.080 0.085c0.029 0.021 0.060 0.035 0.096 0.043s0.076 0.010 0.121 0.007l0.099-0.006-0.044-0.704c-0.001-0.009 0.003-0.018 0.012-0.027s0.022-0.017 0.041-0.025 0.044-0.014 0.074-0.019c0.031-0.005 0.068-0.009 0.112-0.012 0.045-0.003 0.083-0.004 0.114-0.002s0.057 0.005 0.076 0.010c0.020 0.005 0.034 0.012 0.043 0.020s0.014 0.016 0.014 0.025l0.109 1.745c0.001 0.009-0.003 0.018-0.011 0.027s-0.021 0.017-0.040 0.024c-0.019 0.007-0.044 0.013-0.075 0.018s-0.069 0.009-0.114 0.012z"></path>
<path fill="#fff" d="M14.99 30.059c0.072 0.006 0.136-0.001 0.193-0.023s0.104-0.056 0.144-0.104c0.039-0.048 0.071-0.106 0.095-0.176s0.040-0.15 0.048-0.242c0.008-0.085 0.008-0.164-0-0.236s-0.025-0.137-0.052-0.192c-0.027-0.056-0.066-0.1-0.117-0.134s-0.117-0.054-0.197-0.061c-0.073-0.007-0.138 0.001-0.195 0.022s-0.104 0.056-0.143 0.103c-0.039 0.047-0.070 0.105-0.094 0.175s-0.039 0.15-0.047 0.242c-0.008 0.085-0.008 0.164-0.001 0.236s0.024 0.137 0.052 0.192 0.066 0.101 0.117 0.135c0.051 0.034 0.117 0.055 0.198 0.063zM14.938 30.442c-0.154-0.014-0.286-0.047-0.396-0.099s-0.197-0.122-0.264-0.21c-0.067-0.088-0.113-0.192-0.138-0.314s-0.031-0.259-0.017-0.412c0.013-0.147 0.045-0.279 0.094-0.396s0.117-0.216 0.204-0.297c0.086-0.080 0.191-0.139 0.313-0.176s0.263-0.048 0.421-0.034c0.153 0.014 0.284 0.047 0.393 0.1s0.198 0.123 0.265 0.211c0.067 0.088 0.114 0.192 0.139 0.314s0.031 0.258 0.017 0.41c-0.013 0.147-0.045 0.279-0.095 0.397s-0.118 0.217-0.205 0.297-0.19 0.138-0.312 0.175c-0.122 0.037-0.262 0.048-0.42 0.034z"></path>
<path fill="#fff" d="M13.081 30.097l-0.97-0.248c-0.044-0.011-0.073-0.032-0.088-0.062s-0.016-0.071-0.003-0.123l0.405-1.582c0.003-0.013 0.010-0.023 0.020-0.030s0.024-0.012 0.044-0.014 0.044-0 0.076 0.004c0.031 0.005 0.070 0.013 0.115 0.024 0.046 0.012 0.084 0.023 0.114 0.034s0.053 0.022 0.070 0.033 0.027 0.022 0.031 0.033c0.005 0.011 0.005 0.023 0.002 0.035l-0.346 1.353 0.34 0.087c0.070-0.191 0.139-0.357 0.206-0.498s0.134-0.26 0.201-0.358c0.066-0.098 0.132-0.176 0.197-0.234s0.131-0.101 0.198-0.128c0.067-0.027 0.135-0.041 0.206-0.041s0.141 0.008 0.214 0.027c0.018 0.004 0.031 0.011 0.041 0.019s0.016 0.020 0.019 0.036 0.002 0.038-0.003 0.066c-0.005 0.028-0.013 0.065-0.024 0.11-0.012 0.046-0.022 0.084-0.032 0.112s-0.018 0.050-0.027 0.064c-0.009 0.014-0.019 0.023-0.029 0.026s-0.021 0.003-0.034-0.001c-0.035-0.009-0.070-0.010-0.106-0.004s-0.072 0.024-0.11 0.054c-0.038 0.030-0.077 0.072-0.117 0.126s-0.083 0.125-0.128 0.212c-0.045 0.087-0.093 0.192-0.145 0.316s-0.108 0.268-0.169 0.433c-0.016 0.051-0.036 0.086-0.062 0.106s-0.061 0.024-0.104 0.013z"></path>
<path fill="#fff" d="M11.009 28.298c0.072 0.031 0.136 0.053 0.192 0.064s0.104 0.013 0.145 0.006c0.041-0.007 0.076-0.023 0.104-0.047s0.050-0.055 0.067-0.094c0.029-0.066 0.030-0.128 0.005-0.184s-0.076-0.1-0.15-0.133c-0.063-0.027-0.127-0.036-0.194-0.027s-0.14 0.033-0.222 0.071l-0.117 0.27 0.171 0.074zM10.661 29.351c-0.124-0.054-0.226-0.112-0.303-0.174s-0.134-0.131-0.169-0.206c-0.035-0.075-0.049-0.158-0.040-0.248s0.036-0.191 0.083-0.3l0.461-1.066c0.007-0.017 0.019-0.027 0.035-0.031s0.038-0.003 0.065 0.004c0.027 0.007 0.066 0.021 0.116 0.043 0.053 0.023 0.091 0.042 0.114 0.057s0.037 0.029 0.043 0.043c0.006 0.014 0.005 0.029-0.002 0.046l-0.055 0.126c0.095-0.042 0.193-0.064 0.294-0.067s0.202 0.018 0.304 0.062c0.084 0.036 0.157 0.081 0.218 0.133s0.108 0.111 0.141 0.177c0.033 0.066 0.050 0.136 0.050 0.213s-0.017 0.157-0.054 0.242c-0.040 0.092-0.093 0.165-0.158 0.217s-0.144 0.085-0.235 0.099c-0.091 0.013-0.194 0.008-0.31-0.017s-0.244-0.068-0.385-0.129l-0.155-0.067-0.042 0.096c-0.021 0.050-0.035 0.096-0.041 0.137s-0.003 0.080 0.009 0.115c0.012 0.035 0.035 0.067 0.069 0.095s0.079 0.055 0.135 0.080c0.075 0.032 0.145 0.053 0.211 0.062s0.126 0.013 0.179 0.012c0.054-0.001 0.099-0.003 0.137-0.006s0.066-0.001 0.085 0.007c0.013 0.006 0.023 0.015 0.029 0.027s0.010 0.028 0.009 0.046c-0 0.018-0.003 0.039-0.009 0.063s-0.015 0.050-0.027 0.077c-0.016 0.037-0.031 0.064-0.047 0.083s-0.035 0.033-0.059 0.043-0.061 0.016-0.112 0.019c-0.050 0.003-0.107 0.001-0.171-0.005s-0.13-0.018-0.201-0.035c-0.071-0.017-0.141-0.041-0.211-0.071z"></path>
<path fill="#fff" d="M7.114 25.669c0.057 0.055 0.109 0.097 0.157 0.127s0.093 0.049 0.134 0.056c0.041 0.007 0.079 0.005 0.114-0.008s0.066-0.034 0.096-0.065c0.050-0.052 0.073-0.109 0.069-0.17s-0.036-0.121-0.094-0.177c-0.049-0.047-0.107-0.079-0.172-0.093s-0.143-0.019-0.232-0.011l-0.204 0.212 0.134 0.129zM6.42 26.532c-0.098-0.094-0.172-0.184-0.223-0.27s-0.080-0.17-0.086-0.253c-0.007-0.082 0.010-0.165 0.050-0.247s0.101-0.166 0.183-0.251l0.806-0.837c0.013-0.013 0.027-0.019 0.044-0.017s0.036 0.010 0.059 0.026 0.054 0.043 0.093 0.080c0.042 0.040 0.071 0.071 0.087 0.093s0.024 0.040 0.025 0.055c0.001 0.015-0.005 0.029-0.018 0.042l-0.095 0.099c0.104-0.006 0.204 0.008 0.299 0.040s0.183 0.087 0.263 0.164c0.066 0.064 0.118 0.131 0.157 0.201s0.062 0.142 0.070 0.215c0.008 0.073-0.001 0.145-0.027 0.217s-0.071 0.141-0.136 0.208c-0.070 0.073-0.145 0.122-0.225 0.148s-0.165 0.030-0.255 0.010c-0.090-0.019-0.185-0.061-0.284-0.125s-0.205-0.149-0.316-0.256l-0.121-0.117-0.073 0.075c-0.038 0.039-0.067 0.077-0.087 0.114s-0.031 0.074-0.032 0.111c-0.001 0.037 0.010 0.075 0.031 0.113s0.054 0.079 0.099 0.122c0.059 0.056 0.117 0.1 0.176 0.132s0.113 0.056 0.164 0.074c0.051 0.018 0.094 0.032 0.13 0.042s0.062 0.022 0.077 0.036c0.010 0.010 0.016 0.022 0.018 0.036s-0.001 0.030-0.007 0.047c-0.006 0.017-0.017 0.036-0.031 0.056s-0.032 0.041-0.052 0.063c-0.028 0.029-0.052 0.049-0.073 0.062s-0.044 0.019-0.070 0.020c-0.026 0.001-0.063-0.006-0.111-0.021s-0.101-0.037-0.158-0.065c-0.057-0.028-0.116-0.063-0.176-0.104s-0.118-0.088-0.172-0.141z"></path>
<path fill="#fff" d="M5.289 25.275c-0.027-0.035-0.048-0.066-0.064-0.092s-0.028-0.049-0.035-0.068c-0.007-0.019-0.010-0.035-0.009-0.047s0.005-0.021 0.013-0.027l0.534-0.408-0.060-0.078c-0.024-0.032-0.050-0.058-0.077-0.077s-0.058-0.033-0.092-0.041-0.073-0.009-0.116-0.004c-0.043 0.005-0.094 0.016-0.15 0.033l-0.384 0.11c-0.013 0.005-0.026 0.006-0.039 0.005s-0.028-0.008-0.044-0.019c-0.016-0.011-0.035-0.029-0.057-0.054s-0.050-0.058-0.082-0.102c-0.029-0.038-0.052-0.070-0.068-0.095s-0.028-0.047-0.034-0.064c-0.006-0.017-0.009-0.030-0.007-0.040s0.007-0.017 0.015-0.024c0.010-0.008 0.024-0.015 0.042-0.022s0.043-0.015 0.075-0.023l0.345-0.091c0.069-0.018 0.131-0.030 0.185-0.033s0.104-0.002 0.146 0.005c0.043 0.007 0.081 0.018 0.115 0.033s0.064 0.031 0.090 0.048l0.003-0.002c-0.011-0.042-0.019-0.083-0.025-0.122s-0.006-0.081-0-0.125 0.018-0.091 0.036-0.142c0.019-0.051 0.045-0.107 0.079-0.169l0.206-0.369c0.009-0.016 0.016-0.030 0.023-0.041s0.014-0.020 0.020-0.028 0.012-0.014 0.016-0.019c0.005-0.004 0.009-0.008 0.013-0.011 0.008-0.006 0.017-0.009 0.027-0.007s0.022 0.008 0.037 0.019 0.032 0.029 0.054 0.053c0.021 0.024 0.046 0.054 0.075 0.092 0.033 0.043 0.059 0.079 0.078 0.109s0.033 0.053 0.042 0.073c0.009 0.019 0.013 0.035 0.011 0.048s-0.006 0.025-0.013 0.037l-0.23 0.378c-0.032 0.049-0.057 0.094-0.073 0.135s-0.025 0.079-0.026 0.114c-0.002 0.035 0.004 0.070 0.018 0.103s0.034 0.068 0.061 0.104l0.060 0.078 0.56-0.428c0.007-0.006 0.017-0.007 0.029-0.005s0.027 0.009 0.044 0.020c0.017 0.011 0.036 0.029 0.057 0.051s0.045 0.051 0.072 0.086c0.027 0.036 0.049 0.067 0.066 0.094s0.028 0.050 0.034 0.069c0.007 0.019 0.009 0.035 0.008 0.047s-0.006 0.020-0.013 0.026l-1.39 1.061c-0.007 0.006-0.017 0.007-0.028 0.006s-0.026-0.008-0.042-0.020-0.035-0.029-0.057-0.052c-0.021-0.023-0.046-0.052-0.073-0.088z"></path>
<path fill="#fff" d="M4.079 22.753c0.015 0.028 0.035 0.054 0.058 0.078s0.053 0.044 0.088 0.063 0.076 0.035 0.123 0.049c0.047 0.014 0.103 0.026 0.167 0.036l0.502-0.269c0.044-0.101 0.072-0.19 0.084-0.267s0.002-0.145-0.029-0.204c-0.030-0.056-0.070-0.096-0.119-0.12s-0.104-0.036-0.163-0.036-0.121 0.009-0.186 0.028c-0.064 0.019-0.126 0.044-0.184 0.076-0.065 0.035-0.125 0.073-0.179 0.115s-0.099 0.087-0.133 0.135c-0.034 0.048-0.055 0.099-0.062 0.152s0.004 0.108 0.035 0.165zM3.644 22.824c-0.060-0.111-0.089-0.218-0.087-0.32s0.027-0.198 0.077-0.289 0.119-0.174 0.208-0.251c0.089-0.077 0.191-0.147 0.306-0.208 0.135-0.073 0.265-0.124 0.389-0.153s0.239-0.037 0.346-0.022c0.106 0.015 0.202 0.053 0.288 0.114s0.157 0.145 0.215 0.252c0.024 0.044 0.041 0.087 0.053 0.129s0.018 0.084 0.019 0.129c0.001 0.044-0.002 0.090-0.010 0.139s-0.020 0.1-0.035 0.155l0.716-0.385c0.011-0.006 0.023-0.008 0.036-0.006s0.027 0.009 0.042 0.023c0.015 0.013 0.032 0.032 0.050 0.058s0.038 0.059 0.061 0.101c0.023 0.042 0.040 0.078 0.051 0.107s0.018 0.054 0.021 0.073c0.003 0.020 0.001 0.036-0.004 0.047s-0.014 0.021-0.025 0.027l-2.126 1.142c-0.011 0.006-0.023 0.009-0.034 0.007s-0.024-0.007-0.037-0.018c-0.013-0.011-0.028-0.028-0.043-0.049s-0.032-0.050-0.051-0.086c-0.018-0.034-0.032-0.064-0.042-0.088s-0.016-0.046-0.017-0.063c-0.002-0.017-0-0.031 0.005-0.041s0.014-0.018 0.025-0.025l0.179-0.096c-0.069-0.020-0.133-0.042-0.19-0.066s-0.11-0.052-0.157-0.084-0.089-0.068-0.126-0.109c-0.037-0.041-0.070-0.088-0.098-0.142z"></path>
<path fill="#fff" d="M3.177 20.743c0.023 0.068 0.056 0.124 0.099 0.167s0.094 0.073 0.153 0.089c0.060 0.017 0.126 0.022 0.199 0.015s0.154-0.025 0.24-0.054c0.081-0.027 0.153-0.059 0.216-0.096s0.115-0.078 0.155-0.125c0.040-0.047 0.065-0.101 0.075-0.162s0.002-0.129-0.024-0.205c-0.024-0.070-0.057-0.126-0.099-0.169s-0.093-0.073-0.152-0.089c-0.059-0.017-0.125-0.022-0.198-0.014s-0.153 0.026-0.24 0.055c-0.081 0.027-0.153 0.059-0.216 0.095s-0.115 0.078-0.155 0.125c-0.040 0.048-0.065 0.102-0.076 0.162s-0.003 0.129 0.023 0.206zM2.807 20.851c-0.050-0.147-0.073-0.281-0.070-0.402s0.031-0.23 0.084-0.326c0.053-0.096 0.13-0.181 0.231-0.253s0.224-0.133 0.369-0.183c0.139-0.047 0.273-0.072 0.4-0.075s0.245 0.020 0.354 0.066 0.204 0.118 0.288 0.215c0.083 0.097 0.151 0.221 0.202 0.371 0.050 0.145 0.072 0.279 0.069 0.4s-0.032 0.23-0.085 0.328c-0.053 0.097-0.13 0.182-0.231 0.254s-0.223 0.133-0.368 0.182c-0.139 0.047-0.273 0.072-0.401 0.074s-0.246-0.020-0.354-0.067-0.203-0.118-0.287-0.214c-0.083-0.096-0.15-0.22-0.202-0.37z"></path>
<path fill="#fff" d="M2.704 18.474c0.007 0.043 0.019 0.083 0.036 0.118s0.039 0.068 0.067 0.1c0.027 0.031 0.059 0.062 0.096 0.091s0.078 0.060 0.125 0.091c0.015-0.001 0.032-0.003 0.050-0.006s0.036-0.006 0.055-0.009c0.12-0.020 0.223-0.044 0.309-0.073s0.156-0.063 0.209-0.104c0.053-0.041 0.090-0.089 0.11-0.144s0.023-0.119 0.011-0.191c-0.011-0.065-0.033-0.121-0.066-0.168s-0.077-0.083-0.13-0.11c-0.053-0.026-0.116-0.043-0.189-0.049s-0.153-0.002-0.24 0.012c-0.071 0.012-0.137 0.029-0.196 0.052s-0.108 0.052-0.148 0.087c-0.040 0.035-0.069 0.078-0.088 0.129s-0.022 0.109-0.011 0.174zM1.308 17.994c-0.001-0.015 0.004-0.027 0.016-0.037s0.032-0.018 0.061-0.026c0.028-0.007 0.068-0.015 0.119-0.024 0.036-0.006 0.067-0.010 0.093-0.012s0.050-0 0.070 0.004 0.037 0.013 0.050 0.024c0.013 0.012 0.023 0.027 0.028 0.047l0.177 0.548c0.016 0.051 0.032 0.095 0.049 0.133s0.033 0.071 0.050 0.099c0.017 0.028 0.035 0.052 0.054 0.072s0.041 0.039 0.066 0.057 0.056 0.033 0.092 0.046c0.036 0.012 0.075 0.022 0.116 0.028s0.087 0.010 0.135 0.011c0.049 0.001 0.099 0.001 0.151 0-0.041-0.029-0.081-0.062-0.118-0.099s-0.070-0.079-0.099-0.124c-0.029-0.045-0.054-0.093-0.075-0.146s-0.037-0.108-0.046-0.168c-0.021-0.125-0.019-0.237 0.005-0.336s0.069-0.185 0.133-0.258c0.065-0.073 0.147-0.133 0.249-0.181s0.22-0.083 0.355-0.105c0.146-0.024 0.284-0.024 0.412-0.001s0.242 0.069 0.341 0.136 0.181 0.153 0.246 0.258c0.065 0.105 0.109 0.226 0.132 0.364 0.025 0.153 0.023 0.288-0.006 0.404s-0.085 0.218-0.168 0.305c-0.083 0.086-0.194 0.158-0.334 0.214s-0.306 0.101-0.501 0.133c-0.141 0.023-0.276 0.038-0.403 0.044s-0.245 0.003-0.354-0.008c-0.109-0.011-0.205-0.032-0.291-0.061s-0.155-0.062-0.21-0.099c-0.054-0.037-0.1-0.074-0.135-0.111s-0.069-0.080-0.099-0.127-0.060-0.101-0.086-0.16c-0.027-0.060-0.052-0.125-0.076-0.197l-0.189-0.593c-0.006-0.023-0.010-0.041-0.011-0.056z"></path>
<path fill="#fff" d="M3.157 16.299c0.001 0.079 0.007 0.146 0.019 0.201s0.030 0.1 0.053 0.135 0.052 0.060 0.085 0.076c0.033 0.016 0.071 0.024 0.114 0.023 0.072-0.001 0.129-0.024 0.17-0.070s0.061-0.11 0.060-0.191c-0.001-0.068-0.018-0.131-0.054-0.188s-0.087-0.115-0.154-0.174l-0.294 0.002 0.002 0.186zM2.054 16.407c-0.001-0.136 0.011-0.252 0.037-0.348s0.066-0.176 0.12-0.238c0.054-0.062 0.125-0.108 0.211-0.137s0.189-0.044 0.308-0.045l1.162-0.009c0.018-0 0.032 0.006 0.043 0.019s0.018 0.033 0.023 0.061 0.007 0.069 0.008 0.123c0.001 0.058-0.001 0.1-0.006 0.127s-0.012 0.045-0.022 0.056-0.024 0.017-0.042 0.017l-0.138 0.001c0.077 0.070 0.137 0.151 0.18 0.242s0.065 0.192 0.066 0.303c0.001 0.092-0.010 0.176-0.034 0.253s-0.058 0.144-0.105 0.2c-0.047 0.057-0.105 0.101-0.174 0.132s-0.151 0.048-0.244 0.049c-0.101 0.001-0.188-0.018-0.263-0.057s-0.136-0.097-0.185-0.175-0.086-0.175-0.11-0.291c-0.024-0.116-0.037-0.251-0.038-0.404l-0.001-0.168-0.105 0.001c-0.054 0-0.102 0.006-0.142 0.018s-0.074 0.030-0.101 0.055c-0.027 0.025-0.047 0.059-0.059 0.101s-0.019 0.094-0.018 0.156c0.001 0.081 0.010 0.154 0.029 0.218s0.039 0.12 0.061 0.169c0.022 0.049 0.043 0.090 0.061 0.122s0.028 0.059 0.028 0.080c0 0.014-0.004 0.027-0.013 0.038s-0.022 0.020-0.038 0.027c-0.017 0.007-0.037 0.013-0.062 0.017s-0.052 0.006-0.081 0.006c-0.040 0-0.072-0.003-0.095-0.009s-0.044-0.018-0.063-0.036c-0.019-0.018-0.040-0.049-0.063-0.094s-0.044-0.098-0.064-0.158c-0.020-0.061-0.036-0.127-0.049-0.198s-0.020-0.145-0.020-0.222z"></path>
<path fill="#fff" d="M2.126 15.148l0.171-1.345c0.001-0.012 0.006-0.022 0.015-0.030s0.021-0.015 0.039-0.019c0.018-0.004 0.040-0.006 0.068-0.006s0.062 0.003 0.102 0.008c0.042 0.005 0.077 0.011 0.105 0.018s0.050 0.014 0.065 0.023c0.016 0.009 0.026 0.018 0.031 0.028s0.007 0.021 0.006 0.033l-0.055 0.432 1.349 0.172c0.013 0.002 0.024 0.007 0.032 0.016s0.015 0.023 0.019 0.041c0.004 0.019 0.006 0.044 0.005 0.076s-0.004 0.071-0.010 0.119c-0.006 0.046-0.012 0.084-0.019 0.115s-0.015 0.054-0.024 0.072c-0.009 0.018-0.018 0.030-0.029 0.035s-0.022 0.008-0.035 0.006l-1.349-0.172-0.055 0.432c-0.002 0.013-0.007 0.024-0.015 0.032s-0.021 0.015-0.039 0.020c-0.018 0.004-0.041 0.006-0.071 0.006s-0.066-0.004-0.108-0.009c-0.038-0.005-0.071-0.011-0.096-0.018s-0.047-0.015-0.062-0.024c-0.016-0.009-0.027-0.018-0.033-0.028s-0.008-0.021-0.006-0.034z"></path>
<path fill="#fff" d="M2.44 13.052c0.025-0.088 0.048-0.149 0.071-0.181s0.046-0.046 0.069-0.039l0.739 0.206c0.051 0.014 0.103 0.031 0.157 0.050s0.105 0.039 0.154 0.059c-0.041-0.044-0.082-0.088-0.123-0.133s-0.079-0.091-0.115-0.139l-0.607-0.78c-0.011-0.014-0.019-0.028-0.026-0.041s-0.010-0.030-0.011-0.048 0.001-0.040 0.005-0.065c0.004-0.025 0.012-0.057 0.023-0.095 0.012-0.044 0.023-0.079 0.034-0.107s0.021-0.049 0.032-0.064 0.022-0.024 0.034-0.028c0.012-0.003 0.024-0.003 0.036 0l1.669 0.466c0.012 0.003 0.022 0.010 0.029 0.019s0.011 0.023 0.011 0.042c0.001 0.019-0.002 0.043-0.007 0.073s-0.015 0.067-0.027 0.112c-0.013 0.045-0.024 0.082-0.035 0.112s-0.022 0.054-0.033 0.071c-0.011 0.018-0.022 0.029-0.033 0.035s-0.023 0.007-0.035 0.003l-0.742-0.207c-0.052-0.015-0.106-0.031-0.161-0.050s-0.109-0.039-0.16-0.060c0.044 0.044 0.086 0.091 0.127 0.14s0.081 0.098 0.121 0.148l0.606 0.774c0.011 0.015 0.019 0.029 0.026 0.041s0.010 0.027 0.012 0.044-0 0.038-0.005 0.062c-0.005 0.024-0.012 0.055-0.023 0.092-0.013 0.045-0.024 0.081-0.034 0.108s-0.021 0.049-0.031 0.064c-0.010 0.015-0.021 0.025-0.032 0.029s-0.023 0.005-0.035 0.001l-1.67-0.466c-0.011-0.003-0.020-0.009-0.028-0.019s-0.012-0.024-0.013-0.044c-0.001-0.020 0.001-0.045 0.006-0.075s0.014-0.068 0.026-0.112z"></path>
<path fill="#fff" d="M3.193 10.751c0.018-0.040 0.036-0.073 0.052-0.1s0.031-0.048 0.044-0.063c0.013-0.015 0.026-0.025 0.037-0.030s0.021-0.005 0.029-0.001l0.61 0.283 0.042-0.090c0.017-0.036 0.028-0.071 0.032-0.104s0.003-0.067-0.007-0.1c-0.009-0.034-0.026-0.068-0.051-0.105s-0.057-0.075-0.099-0.118l-0.276-0.288c-0.010-0.009-0.018-0.020-0.023-0.032s-0.006-0.028-0.004-0.048 0.010-0.045 0.021-0.076c0.012-0.031 0.029-0.071 0.052-0.12 0.020-0.043 0.038-0.078 0.053-0.105s0.029-0.046 0.041-0.060c0.012-0.014 0.023-0.022 0.032-0.025s0.018-0.002 0.028 0.002c0.012 0.005 0.025 0.014 0.039 0.027s0.033 0.031 0.055 0.056l0.241 0.263c0.048 0.052 0.087 0.102 0.116 0.149s0.050 0.091 0.064 0.132c0.014 0.041 0.022 0.080 0.025 0.117s0.003 0.071-0.001 0.102l0.003 0.002c0.032-0.029 0.064-0.056 0.096-0.079s0.069-0.043 0.111-0.059 0.089-0.027 0.143-0.034c0.054-0.007 0.116-0.010 0.186-0.008l0.422 0.010c0.019 0 0.034 0.001 0.047 0.002s0.024 0.002 0.034 0.004c0.010 0.002 0.018 0.004 0.024 0.006s0.012 0.004 0.016 0.006 0.016 0.011 0.019 0.021c0.003 0.009 0.003 0.023-0 0.042s-0.011 0.042-0.022 0.072c-0.011 0.030-0.027 0.066-0.047 0.11-0.023 0.049-0.043 0.089-0.060 0.12s-0.032 0.054-0.045 0.071c-0.013 0.017-0.025 0.027-0.037 0.032s-0.025 0.006-0.039 0.005l-0.442-0.028c-0.059-0.006-0.109-0.006-0.153-0.002s-0.081 0.015-0.113 0.030c-0.032 0.015-0.060 0.036-0.083 0.064s-0.045 0.062-0.064 0.103l-0.042 0.090 0.639 0.297c0.008 0.004 0.014 0.012 0.018 0.023s0.005 0.028 0.002 0.048-0.008 0.045-0.019 0.075c-0.010 0.029-0.024 0.064-0.043 0.104-0.019 0.041-0.037 0.075-0.053 0.102s-0.031 0.048-0.045 0.062c-0.014 0.015-0.027 0.024-0.038 0.028s-0.021 0.004-0.029 0l-1.586-0.736c-0.008-0.004-0.014-0.011-0.018-0.022s-0.005-0.027-0.002-0.047 0.009-0.045 0.019-0.074c0.010-0.029 0.025-0.065 0.044-0.106z"></path>
<path fill="#fff" d="M4.177 8.832c0.051-0.076 0.093-0.126 0.125-0.149s0.058-0.029 0.078-0.015l0.635 0.431c0.044 0.030 0.088 0.062 0.133 0.097s0.087 0.070 0.128 0.105c-0.025-0.055-0.050-0.11-0.074-0.165s-0.046-0.111-0.065-0.168l-0.326-0.933c-0.006-0.017-0.010-0.032-0.011-0.047s0-0.031 0.005-0.049c0.005-0.018 0.013-0.038 0.026-0.060s0.029-0.050 0.052-0.083c0.025-0.037 0.047-0.068 0.066-0.091s0.036-0.040 0.051-0.051c0.015-0.011 0.029-0.016 0.041-0.016s0.024 0.004 0.034 0.012l1.434 0.973c0.011 0.007 0.018 0.016 0.021 0.027s0.003 0.026-0.003 0.044c-0.005 0.018-0.015 0.041-0.030 0.067s-0.035 0.059-0.062 0.098c-0.026 0.038-0.049 0.070-0.069 0.095s-0.038 0.044-0.054 0.057-0.030 0.021-0.042 0.023c-0.012 0.002-0.024-0.001-0.034-0.008l-0.638-0.433c-0.045-0.030-0.090-0.063-0.137-0.099s-0.091-0.071-0.133-0.108c0.027 0.056 0.053 0.114 0.076 0.173s0.045 0.119 0.067 0.179l0.328 0.927c0.005 0.018 0.009 0.033 0.011 0.047s0.001 0.029-0.003 0.046c-0.004 0.017-0.013 0.036-0.025 0.057s-0.029 0.048-0.051 0.080c-0.026 0.038-0.048 0.069-0.067 0.092s-0.035 0.039-0.050 0.051c-0.015 0.011-0.028 0.017-0.040 0.017s-0.023-0.003-0.034-0.010l-1.434-0.973c-0.010-0.007-0.016-0.015-0.020-0.027s-0.003-0.027 0.002-0.046c0.005-0.019 0.015-0.042 0.029-0.069s0.035-0.060 0.061-0.098z"></path>
<path fill="none" stroke="#fff" stroke-linejoin="miter" stroke-linecap="butt" stroke-miterlimit="8" stroke-width="0.661" d="M0.373 15.952c0-8.613 6.982-15.594 15.594-15.594s15.594 6.982 15.594 15.594c0 8.613-6.982 15.594-15.594 15.594s-15.594-6.982-15.594-15.594z"></path>
</svg>
